<svg width="82" height="82" viewBox="0 0 82 82" fill="none" xmlns="http://www.w3.org/2000/svg">
<path d="M40.9966 64.7176C41.3407 60.9145 43.9208 57.7164 47.8771 56.247C49.1672 55.7284 50.3713 55.037 51.3174 53.9997C55.1016 50.1966 55.1016 43.6276 51.6614 37.8366L68.3465 21.0683C68.4326 21.0683 68.5186 21.0683 68.5186 21.0683L69.7226 20.809C70.2387 20.7226 70.7547 20.4633 71.2708 20.204L72.7329 21.6734L72.8189 22.5377C72.8189 22.6241 72.8189 22.7106 72.9049 22.7106L73.8509 23.6614C73.9369 23.7478 74.109 23.7478 74.281 23.6614L75.9151 22.0191C76.0011 21.9327 76.0011 21.7598 75.9151 21.5869L74.969 20.6362C74.883 20.5497 74.883 20.5497 74.797 20.5497L73.9369 20.4633L72.6468 19.1668L74.453 17.3517L75.7431 18.6482L75.8291 19.5125C75.8291 19.5989 75.8291 19.6854 75.9151 19.6854L76.8611 20.6362C76.9471 20.7226 77.1192 20.7226 77.2912 20.6362L78.9253 18.9939C79.0113 18.9075 79.0113 18.7346 78.9253 18.5617L77.9792 17.611C77.8932 17.5245 77.8932 17.5245 77.8072 17.5245L76.9471 17.4381L75.6571 16.1416L77.4632 14.3265L78.7533 15.623L78.8393 16.4873C78.8393 16.5738 78.8393 16.6602 78.9253 16.6602L79.8714 17.611C79.9574 17.6974 80.1294 17.6974 80.3014 17.611L81.9355 15.9687C82.0215 15.8823 82.0215 15.7094 81.9355 15.5365L80.9894 14.5858C80.9034 14.4993 80.9034 14.4993 80.8174 14.4993L79.9574 14.4129L78.3232 13.2893C79.2693 12.0792 79.1833 10.3505 78.0652 9.22685L72.4748 3.60863C71.3568 2.48498 69.6366 2.39855 68.4326 3.34932L67.0565 2.05281L66.9705 1.18847C66.9705 1.10204 66.9704 1.0156 66.8844 1.0156L65.9384 0.0648256C65.8524 -0.0216085 65.6804 -0.0216085 65.5083 0.0648256L63.8742 1.70707C63.7882 1.79351 63.7882 1.96638 63.8742 2.13925L64.8203 3.09002C64.9063 3.17646 64.9063 3.17646 64.9923 3.17646L65.8524 3.26289L67.1425 4.5594L65.3363 6.37452L64.1322 4.90514L64.0462 4.0408C64.0462 3.95436 64.0462 3.86793 63.9602 3.86793L63.1002 2.91715C63.0142 2.83072 62.8422 2.83072 62.6701 2.91715L61.036 4.5594C60.95 4.64584 60.95 4.8187 61.036 4.99157L61.9821 5.94235C62.0681 6.02878 62.0681 6.02878 62.1541 6.02878L63.0142 6.11522L64.3043 7.41173L62.4981 9.22685L61.208 7.93034L61.122 7.06599C61.122 6.97956 61.122 6.89313 61.036 6.89313L60.09 5.94235C60.004 5.85591 59.832 5.85591 59.6599 5.94235L58.1118 7.41173C58.0258 7.49816 58.0258 7.67103 58.1118 7.8439L59.0579 8.79468C59.1439 8.88111 59.1439 8.88111 59.2299 8.88111L60.09 8.96754L61.5521 10.4369C61.2941 10.8691 61.036 11.3877 60.95 11.9927L60.692 13.1164C60.692 13.2028 60.692 13.2893 60.692 13.3757L43.9208 30.1439C38.1584 26.773 31.622 26.6866 27.8377 30.4897C26.8916 31.4404 26.1176 32.6505 25.6016 33.947C24.1395 37.8366 20.9572 40.516 17.173 40.8618C11.7546 41.2939 6.85224 43.3683 3.92804 46.3071C-2.60842 52.8761 -0.802296 65.2362 7.97032 74.0525C16.6569 82.7823 29.0418 84.5974 35.5782 78.1149C38.5025 75.0897 40.4806 70.1629 40.9966 64.7176ZM70.2387 6.02878L75.5711 11.3877L69.9807 17.0059C69.7226 17.2652 69.3786 17.4381 69.0346 17.5245L67.8305 17.7838C67.4865 17.8703 67.0565 17.7838 66.7984 17.4381L64.1322 14.9315C63.8742 14.6722 63.7022 14.24 63.7882 13.8943L64.0462 12.6842C64.1323 12.3385 64.3043 11.9927 64.5623 11.7334L70.2387 6.02878ZM61.6381 17.0059C61.7241 17.0924 61.7241 17.1788 61.8101 17.2652L64.4763 19.9447C64.5623 20.0311 64.6483 20.1176 64.7343 20.1176L49.7692 35.1571C49.3392 34.5521 48.8232 34.0335 48.3071 33.5148C47.7911 32.9962 47.2751 32.4776 46.673 32.0455L61.6381 17.0059ZM10.2925 71.7187C2.80996 64.2854 1.00383 53.9133 6.2502 48.6408C8.65837 46.2207 12.8727 44.492 17.517 44.1463C22.5913 43.7141 26.8916 40.2567 28.6978 35.1571C29.0418 34.2928 29.4718 33.5148 30.1599 32.8234C33.6861 29.2796 40.8246 30.5761 45.985 35.8486C51.1453 41.1211 52.5214 48.2087 48.9952 51.7525C48.3931 52.3575 47.6191 52.8761 46.673 53.2218C41.5987 55.1234 38.1584 59.4451 37.7284 64.4583C37.2984 69.1257 35.6643 73.361 33.2561 75.7812C28.0097 81.0536 17.689 79.2385 10.2925 71.7187Z" fill="black"/>
<path d="M37.7996 53.0237C40.2515 50.5597 40.2515 46.5646 37.7996 44.1005C35.3477 41.6365 31.3725 41.6365 28.9206 44.1005C26.4688 46.5646 26.4688 50.5597 28.9206 53.0237C31.3725 55.4878 35.3477 55.4878 37.7996 53.0237Z" fill="black"/>
<path d="M25.7735 67.0513L14.9368 56.1606C14.3347 55.5556 13.3027 55.5556 12.6146 56.1606C12.0126 56.7657 12.0126 57.8029 12.6146 58.4943L23.4514 69.385C24.0534 69.9901 25.0855 69.9901 25.7735 69.385C26.3756 68.78 26.3756 67.7428 25.7735 67.0513Z" fill="black"/>
</svg>
