<svg width="100" height="99" viewBox="0 0 100 99" fill="none" xmlns="http://www.w3.org/2000/svg">
<path d="M28.168 58.6954C28.168 58.6954 27.668 60.597 32.501 62.7858C37.334 64.9746 39.334 64.9746 39.334 64.9746C39.334 64.9746 36.584 62.5746 36.917 61.441C37.25 60.3074 42.334 64.7074 47.25 63.3746C47.25 63.3746 45.595 62.1018 44.297 59.3714C43.208 57.1914 42.14 56.5002 41.291 55.941C41.291 55.941 47.999 50.241 46.249 42.241C46.249 42.241 45.499 38.441 42.749 36.041C42.749 36.041 48.916 42.5746 59.249 38.7746C59.249 38.7746 58.082 35.7746 53.416 33.241C48.75 30.7074 45.166 32.1746 40.833 32.1074C36.5 32.041 35.583 29.1738 35.583 29.1738C35.583 29.1738 32.583 31.3738 29.25 30.5074C25.917 29.641 26 27.9074 21.083 29.1738C16.166 30.4402 12 35.1738 12 35.1738C12 35.1738 20.333 39.4402 24.833 33.1074C24.833 33.1074 20.833 41.5074 19.166 44.3074C17.499 47.1074 11.666 60.7074 33.166 58.441" stroke="black" stroke-width="2" stroke-miterlimit="10" stroke-linecap="round" stroke-linejoin="round"/>
<path d="M25.351 28.9058C25.351 28.9058 32.252 22.7418 36.752 21.7914C41.252 20.841 43.086 20.8434 45.19 21.2914L42.499 23.4378L34.543 29.7834C34.543 29.7834 43.503 21.2906 52.69 23.3906L44.155 31.9402" stroke="black" stroke-width="2" stroke-miterlimit="10" stroke-linecap="round" stroke-linejoin="round"/>
<path d="M24.252 41.8418C24.6662 41.8418 25.002 41.5732 25.002 41.2418C25.002 40.9104 24.6662 40.6418 24.252 40.6418C23.8378 40.6418 23.502 40.9104 23.502 41.2418C23.502 41.5732 23.8378 41.8418 24.252 41.8418Z" stroke="black" stroke-width="2" stroke-miterlimit="10" stroke-linecap="round" stroke-linejoin="round"/>
<path d="M39.418 43.0418C39.8322 43.0418 40.168 42.7732 40.168 42.4418C40.168 42.1104 39.8322 41.8418 39.418 41.8418C39.0038 41.8418 38.668 42.1104 38.668 42.4418C38.668 42.7732 39.0038 43.0418 39.418 43.0418Z" stroke="black" stroke-width="2" stroke-miterlimit="10" stroke-linecap="round" stroke-linejoin="round"/>
<path d="M22.168 51.8418C22.168 51.8418 25.46 52.4418 25.793 54.4082" stroke="black" stroke-miterlimit="10" stroke-linecap="round" stroke-linejoin="round"/>
<path d="M29.203 55.0874C29.203 55.0874 30.828 53.1538 34.12 53.5874" stroke="black" stroke-miterlimit="10" stroke-linecap="round" stroke-linejoin="round"/>
<path d="M46.484 43.7098C46.484 43.7098 49.335 48.9754 58.585 48.8418C67.835 48.7082 80.752 52.0418 82.002 57.7754C83.252 63.509 80.94 75.5754 77.856 76.2418H71.689L71.251 67.0418C71.251 67.0418 69.168 68.3082 63.668 68.3082C58.168 68.3082 55.168 65.3746 55.168 65.3746" stroke="black" stroke-width="2" stroke-miterlimit="10" stroke-linecap="round" stroke-linejoin="round"/>
<path d="M43.626 63.4786C43.626 63.4786 49.835 75.9082 53.501 76.2418H60.085V67.8658" stroke="black" stroke-width="2" stroke-miterlimit="10" stroke-linecap="round" stroke-linejoin="round"/>
<path d="M39.335 64.9754C39.335 64.9754 43.918 76.2418 48.002 76.2418C52.086 76.2418 53.502 76.2418 53.502 76.2418" stroke="black" stroke-width="2" stroke-miterlimit="10" stroke-linecap="round" stroke-linejoin="round"/>
<path d="M65.834 68.2354L67.834 76.2418H72.252" stroke="black" stroke-width="2" stroke-miterlimit="10" stroke-linecap="round" stroke-linejoin="round"/>
<path d="M80.389 55.0274C80.389 55.0274 85.335 58.0754 88.96 55.2418C88.96 55.2418 87.652 61.6082 82.347 61.7082" stroke="black" stroke-width="2" stroke-miterlimit="10" stroke-linecap="round" stroke-linejoin="round"/>
<path d="M28.973 25.4802C28.973 25.4802 32.189 27.7418 36.439 27.4418" stroke="black" stroke-miterlimit="10" stroke-linecap="round" stroke-linejoin="round"/>
<path d="M33.903 22.5786C33.903 22.5786 35.114 25.1306 40.745 24.8362" stroke="black" stroke-miterlimit="10" stroke-linecap="round" stroke-linejoin="round"/>
<path d="M39.02 26.7418C39.02 26.7418 41.282 30.1314 47.079 29.0114" stroke="black" stroke-miterlimit="10" stroke-linecap="round" stroke-linejoin="round"/>
<path d="M44.11 24.0442C44.11 24.0442 44.967 26.4106 49.859 26.2266" stroke="black" stroke-miterlimit="10" stroke-linecap="round" stroke-linejoin="round"/>
</svg>
