<svg width="69" height="69" viewBox="0 0 69 69" fill="none" xmlns="http://www.w3.org/2000/svg">
<path d="M68.8548 24.2658C69.287 19.6777 68.7108 16.5234 67.7025 14.5161C68.4227 11.075 67.8465 4.7663 60.6443 1.75534C54.5944 -0.825475 45.0874 -0.538717 38.6054 2.47224C35.2924 3.90603 32.9876 6.05671 32.1234 8.49415C30.971 11.9352 31.2591 15.3763 33.1317 17.9571C33.5638 18.5307 33.996 19.1042 34.5721 19.5343C34.5721 19.6777 34.5721 19.6777 34.5721 19.8211C34.5721 20.1078 33.996 26.4165 35.2924 32.0083C33.2757 30.7179 31.1151 29.7142 29.2425 28.8539C26.2175 27.4201 18.8712 24.2658 14.4058 26.4165C12.9654 27.1334 11.9571 28.2804 11.5249 29.8576C9.94045 29.7142 5.33101 29.8576 2.01798 36.453C-0.430788 41.3279 -1.00697 51.0777 2.30607 58.1032C4.17865 62.1178 6.9155 64.5553 10.2285 65.4155C15.2701 66.5626 24.0569 66.9927 31.8353 66.9927C37.8852 66.9927 43.2148 66.8493 45.0874 66.7059C45.2315 66.9927 45.3755 67.1361 45.6636 67.4228C46.6719 68.4265 47.9683 69 49.4088 69L57.9074 68.8566C59.636 68.8566 61.2205 67.9964 62.0847 66.7059H62.8049C65.5418 66.7059 67.8465 64.5553 67.8465 61.8311V47.7799C67.8465 45.0557 65.5418 42.9051 62.8049 42.9051V42.7617C63.2371 41.4713 67.7025 35.4494 68.8548 24.2658ZM34.8602 9.35442C35.5804 7.20374 37.8852 5.76995 39.7578 4.90968C45.5196 2.32886 54.1622 2.0421 59.636 4.33616C63.6692 6.05671 64.8216 8.92428 65.1097 11.2183L64.9656 11.075C62.949 9.78456 60.3562 9.92794 58.3396 11.2183C55.7467 12.7955 54.3063 15.9498 54.0182 19.2476H42.0625C39.3256 19.2476 36.8769 18.1005 35.5804 16.2366C34.14 14.3727 33.8519 12.0786 34.8602 9.35442ZM41.9184 22.1151H53.8742C54.0182 23.4055 54.4503 24.8393 55.1706 25.9864C57.1872 30.001 56.3229 33.0119 56.3229 33.0119C56.0348 33.7288 56.467 34.5891 57.1872 34.8758C57.9074 35.1626 58.7717 34.7325 59.0598 34.0156C59.0598 33.8722 60.5002 29.8576 57.7634 24.696C55.7467 20.8247 56.611 15.6631 59.636 13.6558C60.7883 12.9389 62.0847 12.9389 63.2371 13.5124C63.6692 13.7992 64.2454 14.2293 64.8216 15.0896C64.8216 15.233 64.9656 15.5197 65.1097 15.6631C65.8299 17.2403 66.4061 19.8211 65.9739 23.9791C65.1097 32.7252 62.0847 38.0302 60.7883 39.8941C60.0681 39.3206 59.2038 39.0338 58.1955 38.8905L44.7993 38.3169C43.647 38.1736 42.6387 38.3169 41.6303 38.6037C41.1982 37.4567 40.622 36.453 39.7578 35.5927C39.7578 35.4494 39.6137 35.1626 39.6137 35.0192C37.1649 31.0046 37.1649 23.8357 37.309 21.1115C38.7494 21.685 40.3339 22.1151 41.9184 22.1151ZM57.6193 65.8457L49.2647 65.989C48.6885 65.989 48.1124 65.7023 47.6802 65.2722C47.2481 64.842 47.104 64.2685 47.104 63.695L46.96 46.3462C46.96 45.6293 46.2398 44.9124 45.5196 44.9124C44.6553 44.9124 44.0791 45.6293 44.0791 46.3462L44.2231 63.5516C38.8935 63.695 19.0153 64.2685 10.8047 62.4046C8.21191 61.8311 6.19528 59.8238 4.75483 56.6694C1.87393 50.5041 2.30607 41.6146 4.46674 37.4567C7.34764 31.8649 10.9488 32.295 11.3809 32.295C11.9571 36.3096 15.5582 38.8905 15.7022 39.0338C16.2784 39.464 17.2867 39.3206 17.7189 38.7471C18.151 38.1736 18.007 37.1699 17.4308 36.7398C17.4308 36.7398 13.3975 33.7288 14.4058 30.001C14.5499 29.2841 14.982 28.7106 15.7022 28.4238C18.007 27.4201 22.9045 28.2804 28.0901 30.8612C32.5555 33.0119 39.3256 36.3096 39.3256 41.3279V57.6731C39.3256 58.5334 39.9018 59.1069 40.7661 59.1069C41.6303 59.1069 42.2065 58.5334 42.2065 57.6731V41.6147V41.4713H42.3506C43.0708 41.1845 43.791 41.1845 44.6553 41.1845L58.0515 41.758C59.2038 41.9014 60.0681 42.7617 59.924 43.9087V63.695C59.78 64.9854 58.9157 65.8457 57.6193 65.8457ZM64.6775 47.4932V61.5443C64.6775 62.548 63.8133 63.5516 62.6609 63.5516V45.3425C63.8133 45.6293 64.6775 46.4895 64.6775 47.4932Z" fill="black"/>
</svg>
