<svg width="76" height="76" viewBox="0 0 76 76" fill="none" xmlns="http://www.w3.org/2000/svg">
<g filter="url(#filter0_d)">
<path d="M38 0C31.2754 0 24.7019 1.99406 19.1106 5.73003C13.5194 9.466 9.16149 14.7761 6.58811 20.9888C4.01473 27.2014 3.34142 34.0377 4.65332 40.6331C5.96521 47.2284 9.2034 53.2866 13.9584 58.0416C18.7134 62.7966 24.7716 66.0348 31.3669 67.3467C37.9623 68.6586 44.7986 67.9853 51.0112 65.4119C57.2239 62.8385 62.534 58.4806 66.27 52.8894C70.0059 47.2981 72 40.7246 72 34C72 24.9826 68.4179 16.3346 62.0416 9.95837C55.6654 3.58213 47.0174 0 38 0V0ZM69.7333 32.8667H51.7927C52.0745 24.9717 55.2725 17.4613 60.7687 11.7867C66.2773 17.4521 69.4739 24.9689 69.7333 32.8667V32.8667ZM39.1333 32.8667V2.26667C46.5514 2.5127 53.6474 5.35669 59.182 10.302C53.302 16.3767 49.8855 24.4173 49.594 32.8667H39.1333ZM36.8667 32.8667H27.086C26.7887 24.2629 23.2506 16.0895 17.1807 9.98466C22.664 5.23155 29.614 2.50678 36.8667 2.26667V32.8667ZM36.8667 35.1333V65.7333C29.5927 65.4909 22.6244 62.7492 17.1353 57.97C23.2114 51.8836 26.7653 43.7275 27.086 35.1333H36.8667ZM39.1333 35.1333H49.628C49.9111 43.5945 53.3283 51.6487 59.216 57.732C53.6646 62.6673 46.5577 65.4989 39.1333 65.7333V35.1333ZM15.56 11.4807C21.26 17.1755 24.596 24.815 24.8987 32.8667H6.26668C6.53819 24.8169 9.86048 17.1716 15.56 11.4807V11.4807ZM6.26668 35.1333H24.8987C24.6045 43.1969 21.2679 50.85 15.56 56.5533C9.85257 50.8539 6.52965 43.1949 6.26668 35.1333ZM60.814 56.2133C55.3012 50.5456 52.0868 43.0344 51.7927 35.1333H69.7333C69.4656 43.0192 66.2695 50.5225 60.7687 56.1793L60.814 56.2133Z" fill="black"/>
</g>
<defs>
<filter id="filter0_d" x="0" y="0" width="76" height="76" filterUnits="userSpaceOnUse" color-interpolation-filters="sRGB">
<feFlood flood-opacity="0" result="BackgroundImageFix"/>
<feColorMatrix in="SourceAlpha" type="matrix" values="0 0 0 0 0 0 0 0 0 0 0 0 0 0 0 0 0 0 127 0"/>
<feOffset dy="4"/>
<feGaussianBlur stdDeviation="2"/>
<feColorMatrix type="matrix" values="0 0 0 0 0 0 0 0 0 0 0 0 0 0 0 0 0 0 0.25 0"/>
<feBlend mode="normal" in2="BackgroundImageFix" result="effect1_dropShadow"/>
<feBlend mode="normal" in="SourceGraphic" in2="effect1_dropShadow" result="shape"/>
</filter>
</defs>
</svg>
