<svg width="100" height="100" viewBox="0 0 100 100" fill="none" xmlns="http://www.w3.org/2000/svg">
<path d="M68.2583 36.3492C68.2724 36.2118 68.2421 36.0651 68.171 35.9264C68.0999 35.7877 67.991 35.6629 67.8575 35.5671L59.4114 29.3788C59.2797 29.2823 59.1291 29.2171 58.9764 29.1904C58.8238 29.1637 58.6751 29.1766 58.5471 29.2277C58.4192 29.2788 58.3169 29.366 58.2518 29.4797C58.1868 29.5933 58.1614 29.7288 58.1787 29.871L58.8094 35.1007L56.9397 35.8472C56.8378 35.883 56.7527 35.9446 56.6922 36.0263L26.34 77.4525C26.2762 77.5427 26.2377 77.6494 26.2271 77.7652L26.0723 79.8611L24.1261 80.6328C24.0074 80.6767 23.9085 80.7499 23.8379 80.8462C23.7674 80.9425 23.7274 81.0588 23.7214 81.1852C23.7226 81.3146 23.7607 81.4487 23.8319 81.5743C23.9031 81.6999 24.0048 81.8125 24.1271 81.9011L28.3832 85.0195C28.5045 85.1094 28.6426 85.1724 28.7837 85.2024C28.9249 85.2324 29.0643 85.2284 29.1881 85.1906C29.3081 85.1484 29.408 85.0756 29.4788 84.9791C29.5495 84.8826 29.5887 84.7653 29.5928 84.6382L29.7421 82.5498L31.6939 81.7705C31.801 81.7256 31.8912 81.6567 31.958 81.5687L62.2936 40.1653C62.3588 40.0758 62.3974 39.9688 62.4065 39.8526L62.5547 37.8449L67.7313 36.8701C67.8751 36.8511 68.0012 36.792 68.0945 36.6997C68.1879 36.6074 68.2447 36.4858 68.2583 36.3492V36.3492ZM32.9666 71.4236L34.1408 75.7725L33.459 76.7031L32.2847 72.3543L32.9666 71.4236ZM34.1419 69.8195L34.8237 68.8889L35.998 73.2377L35.3438 74.1305L34.1419 69.8195ZM35.999 67.2848L36.6809 66.3541L37.8552 70.703L37.1733 71.6336L35.999 67.2848ZM37.8562 64.75L38.5381 63.8194L39.7124 68.1682L39.0305 69.0989L37.8562 64.75ZM39.7134 62.2153L40.3952 61.2846L41.5695 65.6334L40.8876 66.5641L39.7134 62.2153ZM41.5705 59.6805L42.2524 58.7498L43.4267 63.0987L42.7448 64.0294L41.5705 59.6805ZM43.4277 57.1458L44.1096 56.2151L45.2839 60.5639L44.602 61.4946L43.4277 57.1458ZM45.2571 54.6488L45.9667 53.6803L47.141 58.0292L46.4591 58.9599L45.2571 54.6488ZM47.1143 52.1141L47.8239 51.1456L48.9982 55.4944L48.3163 56.4251L47.1143 52.1141ZM48.9715 49.5793L49.6922 48.5957L50.8664 52.9446L50.1846 53.8752L48.9715 49.5793ZM50.8287 47.0446L51.5383 46.0761L52.7125 50.4249L52.0362 51.348L50.8287 47.0446ZM52.6858 44.5098L53.3954 43.5413L54.5697 47.8902L53.8878 48.8209L52.6858 44.5098ZM54.543 41.9751L55.236 41.0293L56.4102 45.3781L55.7283 46.3088L54.543 41.9751ZM57.5966 43.7589L56.4223 39.4101L57.1098 38.4718L58.284 42.8207L57.5966 43.7589ZM28.2167 81.8741L28.1278 83.1462L26.2361 81.7602L27.2986 81.1433C27.4073 81.1028 27.4979 81.0355 27.5626 80.9471C27.6273 80.8588 27.6642 80.7522 27.6701 80.6364L27.8774 78.3696L31.1094 73.9584L32.2837 78.3072L30.6982 80.4712L28.5992 81.352C28.4909 81.3823 28.3957 81.4356 28.3199 81.5083C28.2441 81.581 28.1894 81.6715 28.1593 81.7739L28.2167 81.8741ZM61.5456 36.5241C61.4052 36.5526 61.2842 36.6187 61.1953 36.7155C61.1065 36.8122 61.0533 36.9359 61.0415 37.0733L60.8453 39.325L59.4704 41.2015L58.3744 37.1425L60.1123 36.3577C60.2415 36.3069 60.3449 36.2195 60.4106 36.1052C60.4763 35.991 60.5017 35.8546 60.4841 35.7114L59.9986 31.5533L65.6072 35.6626L61.5456 36.5241Z" fill="black"/>
<path d="M73.9506 18.4029C75.6802 19.6664 77.1099 21.2758 78.0926 23.0656C79.2854 25.2425 79.7777 27.5769 79.4992 29.7359C79.479 29.8762 79.5056 30.0279 79.5756 30.1722C79.6455 30.3165 79.7559 30.4471 79.8929 30.5476C79.9902 30.6192 80.098 30.6745 80.2099 30.7101C80.3186 30.7444 80.4291 30.7589 80.5348 30.7529C80.6404 30.7468 80.7392 30.7204 80.8252 30.6751C80.9112 30.6298 80.9828 30.5665 81.0357 30.489C81.0886 30.4115 81.1217 30.3213 81.1332 30.2238C81.4429 27.7397 80.8646 25.0568 79.4809 22.5595C78.3423 20.4975 76.6899 18.6447 74.6931 17.1911C74.505 17.0532 74.2808 16.9808 74.0698 16.9898C73.8588 16.9987 73.6783 17.0883 73.568 17.2388C73.4577 17.3893 73.4267 17.5884 73.4818 17.7923C73.5368 17.9962 73.6734 18.1882 73.8616 18.326L73.9506 18.4029Z" fill="black"/>
<path d="M57.1936 19.1141C57.3824 19.2494 57.6057 19.3201 57.8158 19.3112C58.026 19.3023 58.2064 19.2144 58.3187 19.0663C59.2116 17.8375 60.4518 16.888 61.9397 16.294C63.4275 15.6999 65.1217 15.4779 66.8862 15.6456C67.1029 15.6656 67.3009 15.6041 67.4367 15.4746C67.5724 15.3451 67.6349 15.1582 67.6102 14.9551C67.5855 14.752 67.4758 14.5493 67.3052 14.3915C67.1345 14.2338 66.9169 14.1339 66.7003 14.114C64.6818 13.922 62.7439 14.176 61.0419 14.8555C59.3399 15.5351 57.9213 16.6212 56.9 18.0269C56.7897 18.1774 56.7587 18.3765 56.8138 18.5803C56.8688 18.7842 57.0054 18.9762 57.1936 19.1141Z" fill="black"/>
<path d="M60.7021 26.6848C60.428 25.7289 60.3538 24.7712 60.4839 23.868C60.6139 22.9648 60.9456 22.1344 61.4595 21.4256C61.5698 21.2751 61.6008 21.076 61.5457 20.8721C61.4907 20.6682 61.354 20.4762 61.1659 20.3384C60.9778 20.2005 60.7535 20.1281 60.5425 20.1371C60.3315 20.146 60.151 20.2356 60.0408 20.3861C59.4044 21.2469 58.992 22.2591 58.8284 23.362C58.6647 24.4649 58.753 25.6358 59.0881 26.8046C59.1155 26.9033 59.1628 26.9999 59.2272 27.089C59.2916 27.1781 59.372 27.2579 59.4635 27.3239C59.6038 27.4265 59.7653 27.4936 59.9275 27.5166C60.0897 27.5396 60.2455 27.5176 60.375 27.4532C60.5046 27.3889 60.6022 27.2852 60.6555 27.1551C60.7088 27.0251 60.7154 26.8746 60.6744 26.7227L60.7021 26.6848Z" fill="black"/>
<path d="M76.6462 26.5874C76.4405 26.5672 76.2508 26.6204 76.1147 26.7362C75.9787 26.852 75.9063 27.022 75.9121 27.2123C76.0402 28.6691 75.6855 30.0326 74.8957 31.119C74.7855 31.2695 74.7544 31.4686 74.8095 31.6725C74.8645 31.8764 75.0012 32.0684 75.1893 32.2062C75.3774 32.344 75.6017 32.4165 75.8127 32.4075C76.0237 32.3985 76.2042 32.309 76.3144 32.1585C77.2903 30.835 77.7304 29.1672 77.5744 27.3837C77.5399 27.183 77.4229 26.9865 77.2489 26.8373C77.0749 26.688 76.8582 26.5981 76.6462 26.5874V26.5874Z" fill="black"/>
<path d="M65.2802 30.2367C66.2566 30.9521 67.3809 31.4199 68.5108 31.5807C69.6407 31.7416 70.7254 31.5884 71.6279 31.1405C72.5303 30.6925 73.21 29.97 73.5808 29.0643C73.9517 28.1586 73.9971 27.1103 73.7113 26.052C73.4256 24.9938 72.8215 23.973 71.9755 23.119C71.1294 22.2649 70.0794 21.6158 68.9583 21.2537C67.8371 20.8917 66.6951 20.833 65.6767 21.085C64.6583 21.3371 63.8093 21.8885 63.2369 22.6697C62.4694 23.7172 62.2535 25.1029 62.6367 26.522C63.0199 27.9411 63.9708 29.2773 65.2802 30.2367V30.2367ZM70.2363 23.4723C70.9322 23.9822 71.4915 24.6457 71.8435 25.3789C72.1955 26.1121 72.3243 26.8821 72.2138 27.5915C72.1033 28.301 71.7583 28.9179 71.2225 29.3645C70.6867 29.811 69.9841 30.067 69.2036 30.1001C68.4232 30.1333 67.5998 29.942 66.8378 29.5506C66.0757 29.1591 65.4091 28.5851 64.9223 27.901C64.4355 27.2169 64.1503 26.4535 64.1029 25.7074C64.0554 24.9612 64.2478 24.2659 64.6556 23.7092C65.2026 22.9627 66.0978 22.5183 67.1444 22.4739C68.191 22.4295 69.3032 22.7886 70.2363 23.4723V23.4723Z" fill="black"/>
<path d="M66.522 28.5419C67.2745 29.0932 68.1714 29.3829 69.0154 29.347C69.8594 29.3112 70.5814 28.9529 71.0225 28.3509C71.1328 28.2004 71.1638 28.0013 71.1087 27.7974C71.0537 27.5935 70.9171 27.4015 70.7289 27.2636C70.5408 27.1258 70.3166 27.0534 70.1056 27.0624C69.8946 27.0713 69.7141 27.1609 69.6038 27.3114C69.4418 27.5364 69.2001 27.6958 68.9092 27.7695C68.6184 27.8431 68.2917 27.8276 67.9706 27.7249C67.6495 27.6222 67.3486 27.437 67.106 27.1928C66.8635 26.9486 66.6903 26.6565 66.6085 26.3535C66.5267 26.0506 66.54 25.7505 66.6466 25.4915C66.7533 25.2325 66.9486 25.0262 67.2075 24.8989C67.4665 24.7716 67.7776 24.729 68.1011 24.7766C68.4246 24.8241 68.7461 24.9597 69.0245 25.166C69.2126 25.3038 69.4368 25.3762 69.6479 25.3673C69.8589 25.3583 70.0394 25.2687 70.1496 25.1182C70.2599 24.9677 70.2909 24.7686 70.2359 24.5647C70.1808 24.3608 70.0442 24.1688 69.8561 24.031C69.1035 23.4796 68.2066 23.19 67.3626 23.2258C66.5186 23.2617 65.7966 23.62 65.3555 24.222C64.9144 24.824 64.7903 25.6204 65.0106 26.436C65.2308 27.2516 65.7773 28.0195 66.5298 28.5709L66.522 28.5419Z" fill="black"/>
</svg>
