<svg width="99" height="100" viewBox="0 0 99 100" fill="none" xmlns="http://www.w3.org/2000/svg">
<path d="M54.4838 8C47.9589 8 42.6494 12.247 42.6494 17.467C42.6494 22.6869 47.9589 26.9339 54.4838 26.9339C61.0088 26.9339 66.3183 22.6869 66.3183 17.467C66.3183 12.247 61.0088 8 54.4838 8ZM54.4838 24.4724C49.6551 24.4724 45.7263 21.33 45.7263 17.467C45.7263 13.6039 49.6551 10.4615 54.4838 10.4615C59.3126 10.4615 63.2414 13.6039 63.2414 17.467C63.2414 21.33 59.3126 24.4724 54.4838 24.4724Z" fill="black"/>
<path d="M82.0245 39.0932C81.0643 36.4891 78.9325 34.2896 76.0192 32.8991C71.8985 31.2217 68.2069 28.1682 61.156 28.1682C36.2297 27.8231 35.3475 28.953 33.0731 27.1334L19.6566 16.4002C17.4271 14.6166 13.5403 14.601 11.2897 16.3719C8.92862 18.2297 8.92031 21.2607 11.2537 23.1262L26.6594 35.4501C30.9694 38.8996 35.8974 37.6204 41.7389 38.1568V49.9748C39.2777 51.6055 29.7603 54.1605 26.2237 63.8317L21.3032 77.2818C20.0194 80.7961 23.3057 84.3077 27.8838 84.3077C30.9728 84.3077 33.6951 82.6418 34.5018 80.256L38.8543 67.3961C40.3178 63.0775 44.2837 62.4057 54.9031 55.2326C56.4785 59.0498 59.0531 63.4765 60.552 70.5337L62.5066 79.7355C63.0686 82.3815 65.9126 84.3017 69.3742 84.3017C73.6148 84.3017 76.8394 81.2517 76.1365 77.9081L74.616 70.6665C72.8489 62.2518 69.9683 57.2748 67.2242 50.4447V40.2992C69.0662 40.7722 70.4995 41.9327 71.0658 43.4159L75.558 55.1659C76.3272 57.1785 78.6125 58.5306 81.2432 58.5306C85.2157 58.5306 88.0715 55.4785 86.9448 52.4284L82.0245 39.0932ZM81.2432 56.069C79.9737 56.069 78.8709 55.4171 78.4998 54.4459L74.0075 42.6959C73.1332 40.405 70.8991 38.6208 68.034 37.9231L66.2702 37.4934C66.0898 37.4338 65.8931 37.4015 65.6857 37.4015C64.8354 37.4015 64.1472 37.9525 64.1472 38.6322V50.6496C64.1472 50.7849 64.1758 50.9195 64.23 51.048C67.0614 58.0811 69.8663 62.8998 71.5812 71.0738L73.1017 78.3161C73.4717 80.0746 71.8554 81.8401 69.2675 81.8401C67.418 81.8401 65.8511 80.7818 65.5415 79.3233L63.5869 70.1213C61.9925 62.6166 59.3245 58.179 57.086 52.7974C56.9448 52.4826 56.6458 52.2277 56.2642 52.0901C55.8842 51.9531 55.4454 51.9454 55.0563 52.0709C54.9211 52.1142 54.7934 52.173 54.6792 52.2445C43.2171 60.0489 37.7605 61.2123 35.8855 66.7524L31.5331 79.6123C31.0869 80.9279 29.5875 81.8461 27.8838 81.8461C25.3623 81.8461 23.5471 79.9115 24.2569 77.9729L29.1774 64.5228C32.3332 55.8879 41.2075 53.565 44.1083 51.6863C44.5951 51.438 44.8505 51.0054 44.8158 50.5714V37.0703C44.8858 36.3952 44.2334 35.7734 43.3435 35.7452C35.6363 35.1722 32.0566 36.2886 28.8348 33.7097L13.4292 21.3858C12.3018 20.4827 12.3092 19.0222 13.4472 18.1268C14.5318 17.2735 16.4069 17.2806 17.4811 18.1406L30.8975 28.8737C34.6574 31.8832 37.7938 30.1117 61.156 30.6298C67.1372 30.6298 70.1898 33.2548 74.4418 35.0132C76.6878 36.0853 78.3331 37.7813 79.0737 39.7897L83.994 53.1255C84.5338 54.5878 83.1691 56.069 81.2432 56.069Z" fill="black"/>
<path d="M93.2549 18.1833L88.2969 16.0138L85.5851 12.048C85.0472 11.2583 83.4246 11.2596 82.8868 12.048L80.1749 16.0138L75.2185 18.1833C74.7242 18.3996 74.4177 18.813 74.4177 19.2633C74.4177 19.7133 74.7242 20.1274 75.2185 20.3431L80.1749 22.512L82.8868 26.4778C83.1557 26.8726 83.674 27.1184 84.236 27.1184C84.7978 27.1184 85.3162 26.8732 85.5851 26.4784L88.2969 22.512L93.2549 20.3431C93.7492 20.1274 94.0557 19.7133 94.0557 19.2633C94.0557 18.813 93.7492 18.3996 93.2549 18.1833ZM86.4265 20.5252C86.168 20.6381 85.9562 20.8082 85.8149 21.0144L84.236 23.3227L82.6585 21.015C82.5188 20.8082 82.3054 20.6381 82.0469 20.5252L79.1623 19.2633L82.0469 18.0006C82.3054 17.8876 82.5172 17.7175 82.6585 17.5114L84.236 15.2037L85.8149 17.5114C85.9562 17.7175 86.168 17.8876 86.4265 18.0006L89.3111 19.2633L86.4265 20.5252Z" fill="black"/>
<path d="M23.638 46.9189C23.638 46.4687 23.3315 46.0553 22.8372 45.8389L17.8792 43.6694L15.1674 39.7038C14.6295 38.9141 13.0069 38.9152 12.4691 39.7038L9.75723 43.6694L4.80092 45.8389C4.30662 46.0553 4 46.4687 4 46.9189C4 47.369 4.30662 47.783 4.80092 47.9988L9.75723 50.1676L12.4691 54.1334C12.738 54.5276 13.2563 54.7734 13.8183 54.7734C14.3802 54.7734 14.8985 54.5283 15.1674 54.1334L17.8792 50.1676L22.8372 47.9988C23.3315 47.783 23.638 47.369 23.638 46.9189ZM16.0088 48.1809C15.7503 48.2939 15.5385 48.4634 15.3972 48.67L13.8183 50.9777L12.2408 48.67C12.0995 48.4639 11.8877 48.2939 11.6292 48.1809L8.74462 46.9189L11.6292 45.6563C11.8877 45.5433 12.0995 45.3732 12.2408 45.167L13.8183 42.8593L15.3972 45.167C15.5385 45.3732 15.7503 45.5433 16.0088 45.6563L18.8934 46.9189L16.0088 48.1809Z" fill="black"/>
<path d="M30.4949 17.4693H31.8171C32.6674 17.4693 33.3555 16.9183 33.3555 16.2385C33.3555 15.5589 32.6674 15.0078 31.8171 15.0078H30.4949C29.6446 15.0078 28.9565 15.5589 28.9565 16.2385C28.9565 16.9183 29.6446 17.4693 30.4949 17.4693Z" fill="black"/>
<path d="M9.05861 11.2218C9.05861 10.542 8.37061 9.99103 7.52015 9.99103H6.19954C5.34923 9.99103 4.66108 10.542 4.66108 11.2218C4.66108 11.9014 5.34923 12.4526 6.19954 12.4526H7.52015C8.37061 12.4526 9.05861 11.9014 9.05861 11.2218Z" fill="black"/>
<path d="M31.156 50.1845C32.0063 50.1845 32.6945 49.6334 32.6945 48.9537C32.6945 48.274 32.0063 47.723 31.156 47.723H29.8354C28.9851 47.723 28.2969 48.274 28.2969 48.9537C28.2969 49.6334 28.9851 50.1845 29.8354 50.1845H31.156Z" fill="black"/>
<path d="M5.53846 32.0306C4.68815 32.0306 4 32.5817 4 33.2614C4 33.941 4.68815 34.4922 5.53846 34.4922H6.86062C7.71108 34.4922 8.39908 33.941 8.39908 33.2614C8.39908 32.5817 7.71108 32.0306 6.86062 32.0306H5.53846Z" fill="black"/>
<path d="M74.6342 12.4526H75.9562C76.8066 12.4526 77.4946 11.9014 77.4946 11.2218C77.4946 10.542 76.8066 9.99103 75.9562 9.99103H74.6342C73.7837 9.99103 73.0957 10.542 73.0957 11.2218C73.0957 11.9014 73.7837 12.4526 74.6342 12.4526Z" fill="black"/>
<path d="M91.8562 30.3383H90.534C89.6837 30.3383 88.9955 30.8894 88.9955 31.5691C88.9955 32.2487 89.6837 32.7999 90.534 32.7999H91.8562C92.7065 32.7999 93.3946 32.2487 93.3946 31.5691C93.3946 30.8894 92.7065 30.3383 91.8562 30.3383Z" fill="black"/>
</svg>
