<svg width="100" height="100" viewBox="0 0 100 100" fill="none" xmlns="http://www.w3.org/2000/svg">
<path d="M84.4919 79.25L86.7997 70.4537C87.234 68.8045 87.2435 67.1017 86.8276 65.4494C86.4117 63.7971 85.5791 62.2299 84.3808 60.8437C83.1824 59.4574 81.6434 58.2811 79.8577 57.3866C78.0721 56.4922 76.0772 55.8983 73.995 55.6412L74.1856 53.125C75.0584 53.8735 76.1142 54.4706 77.2875 54.8792C78.4607 55.2877 79.7264 55.499 81.0059 55.5H87.2559C87.6703 55.5 88.0678 55.3683 88.3608 55.1339C88.6538 54.8995 88.8184 54.5815 88.8184 54.25C88.8173 53.0116 88.4329 51.7927 87.6995 50.7021C86.966 49.6115 85.9065 48.6832 84.6153 48C85.9065 47.3168 86.966 46.3885 87.6995 45.2979C88.4329 44.2073 88.8173 42.9884 88.8184 41.75C88.8184 41.4185 88.6538 41.1005 88.3608 40.8661C88.0678 40.6317 87.6703 40.5 87.2559 40.5H81.0059C80.4239 40.5012 79.8432 40.546 79.2716 40.6337C79.3841 40.2105 79.4417 39.779 79.4434 39.3462V30.0712C79.4434 29.9075 79.3997 29.7512 79.3841 29.5887L81.2341 24.4087C82.1196 21.9316 82.5688 19.3677 82.5684 16.7912V14.25C82.5684 13.9185 82.4038 13.6005 82.1108 13.3661C81.8178 13.1317 81.4203 13 81.0059 13C75.6265 13.0051 70.3217 14.0071 65.5075 15.9275L63.3497 16.7925C63.1575 16.7825 62.9794 16.75 62.7919 16.75H42.97C42.7825 16.75 42.6044 16.7825 42.42 16.7925L40.2544 15.9275C35.4402 14.0071 30.1354 13.0051 24.756 13C24.3415 13 23.9441 13.1317 23.6511 13.3661C23.3581 13.6005 23.1935 13.9185 23.1935 14.25V16.7912C23.1931 19.3677 23.6423 21.9316 24.5278 24.4087L26.3778 29.5887C26.3622 29.7512 26.3185 29.9075 26.3185 30.0712V39.3462C26.3171 40.2829 26.58 41.2077 27.0875 42.0518C27.5951 42.8959 28.3341 43.6374 29.2497 44.2212L31.02 45.3537L31.8013 55.655C27.8167 56.1391 24.2274 57.8517 21.8013 60.4262C21.781 60.3337 21.7325 60.2437 21.7169 60.1512C21.5351 59.1326 21.6665 58.0939 22.0997 57.125C22.634 56.0317 22.8552 54.8565 22.7471 53.6857C22.6389 52.515 22.2041 51.3786 21.4747 50.36L21.1778 49.9587C21.0198 49.7508 20.7905 49.5834 20.5171 49.4766C20.2438 49.3698 19.9378 49.328 19.6356 49.3562C15.8473 49.7453 12.3684 51.2309 9.85605 53.5323C7.34375 55.8338 5.97215 58.7916 6.00043 61.8471C6.02871 64.9025 7.4549 67.8438 10.0095 70.1152C12.5641 72.3867 16.0702 73.8309 19.8653 74.175H19.9388L21.27 79.25C18.8477 79.3271 16.5567 80.1509 14.8765 81.5489C13.1963 82.9469 12.2573 84.8106 12.2559 86.75C12.2559 87.0815 12.4206 87.3995 12.7136 87.6339C13.0066 87.8683 13.404 88 13.8184 88H91.9434C92.3578 88 92.7553 87.8683 93.0483 87.6339C93.3413 87.3995 93.5059 87.0815 93.5059 86.75C93.5136 84.8085 92.5775 82.9407 90.8955 81.5412C89.2134 80.1416 86.9172 79.3201 84.4919 79.25V79.25ZM56.0216 85.5H49.7716V69.225H56.0216V85.5ZM59.1466 85.475V67.975C59.1466 67.6435 58.982 67.3255 58.6889 67.0911C58.3959 66.8567 57.9985 66.725 57.5841 66.725H48.2091C47.7947 66.725 47.3972 66.8567 47.1042 67.0911C46.8112 67.3255 46.6466 67.6435 46.6466 67.975V85.475H37.1794L34.8106 54.2137C35.8902 55.5062 37.1861 56.6742 38.6622 57.685C39.3939 58.1744 40.1626 58.6273 40.9638 59.0412C43.1966 60.1825 45.3888 61.2087 47.5622 62.1287C47.6372 62.1637 47.7184 62.1975 47.7622 62.2175L52.1669 64.08C52.3977 64.1779 52.6555 64.2279 52.9167 64.2255C53.178 64.2231 53.4343 64.1684 53.6622 64.0662L63.3169 59.73C63.4731 59.6662 63.6294 59.5962 63.7856 59.5287L64.0091 59.4287C65.1203 58.9293 66.1671 58.3431 67.1341 57.6787C68.6098 56.675 69.9053 55.5133 70.9841 54.2262L68.6247 85.4762L59.1466 85.475ZM46.6309 35.4525C46.6309 35.4687 46.6309 35.4837 46.6309 35.5C46.6323 36.2287 46.8991 36.9413 47.3985 37.5507C47.898 38.16 48.6086 38.6398 49.4434 38.9312C49.7222 39.1328 50.0833 39.2462 50.4591 39.25H51.3184V40.725L46.8138 41.4462C46.5102 41.4948 46.1955 41.47 45.9095 41.3752C45.6235 41.2804 45.3792 41.1198 45.2075 40.9137L43.2434 38.5562L40.6434 39.9437L42.6075 42.3C43.0334 42.814 43.6117 43.2356 44.2909 43.5272C44.9701 43.8188 45.7289 43.9714 46.4997 43.9712C46.5825 43.9712 46.6669 43.955 46.7497 43.9512C46.9666 44.841 47.4819 45.6668 48.2402 46.3403C48.9986 47.0139 49.9716 47.5098 51.0551 47.7751C52.1386 48.0403 53.2919 48.065 54.3916 47.8463C55.4913 47.6277 56.4959 47.174 57.2981 46.5337C57.3734 46.4775 57.4434 46.4169 57.5075 46.3525C58.269 45.6803 58.7875 44.855 59.0075 43.965C59.8203 44.0012 60.6307 43.8666 61.3582 43.5745C62.0857 43.2824 62.705 42.843 63.1544 42.3L65.1184 39.9437L62.5184 38.5562L60.5559 40.9137C60.3831 41.1192 60.1384 41.2793 59.8524 41.374C59.5664 41.4687 59.2519 41.4938 58.9481 41.4462L54.4434 40.725V39.25H55.3028C55.6699 39.2449 56.0227 39.1355 56.2981 38.9412C57.1387 38.6515 57.8549 38.1713 58.3583 37.5598C58.8617 36.9483 59.1303 36.2322 59.1309 35.5C59.1309 35.4837 59.1309 35.4687 59.1309 35.4525C60.0346 34.6845 61.1237 34.0711 62.3323 33.6496C63.5408 33.228 64.8438 33.007 66.1622 33C68.2015 33.0288 70.1826 33.5487 71.847 34.492C73.5113 35.4352 74.7815 36.7579 75.4919 38.2875C75.8561 39.0362 75.912 39.8584 75.6515 40.6343C75.3909 41.4102 74.8276 42.0993 74.0434 42.6012L72.5247 43.5762L62.9934 49.6775C62.1628 50.2084 61.1317 50.4984 60.0684 50.5H45.6934C44.6292 50.499 43.5968 50.209 42.7653 49.6775L33.7497 43.9087L31.7091 42.5975C30.9261 42.0957 30.3639 41.407 30.1042 40.6318C29.8445 39.8566 29.901 39.0353 30.2653 38.2875C30.976 36.7574 32.2469 35.4342 33.9122 34.4909C35.5774 33.5476 37.5596 33.028 39.5997 33C40.9181 33.007 42.221 33.228 43.4296 33.6496C44.6382 34.0711 45.7273 34.6845 46.6309 35.4525ZM52.8809 43.025L55.9325 43.5125C55.8181 43.9447 55.5626 44.345 55.1919 44.6725C55.1606 44.7 55.1169 44.7375 55.0888 44.7662C54.7851 44.9986 54.427 45.1806 54.035 45.3017C53.6431 45.4229 53.225 45.4808 52.805 45.472C52.3849 45.4633 51.9712 45.3882 51.5876 45.251C51.204 45.1137 50.8582 44.9171 50.57 44.6725C50.1993 44.345 49.9438 43.9447 49.8294 43.5125L52.8809 43.025ZM56.0059 35.5C56.0059 35.8315 55.8413 36.1495 55.5483 36.3839C55.2553 36.6183 54.8578 36.75 54.4434 36.75H51.3184C50.904 36.75 50.5066 36.6183 50.2136 36.3839C49.9206 36.1495 49.7559 35.8315 49.7559 35.5C49.7559 35.1685 49.9206 34.8505 50.2136 34.6161C50.5066 34.3817 50.904 34.25 51.3184 34.25H54.4434C54.8578 34.25 55.2553 34.3817 55.5483 34.6161C55.8413 34.8505 56.0059 35.1685 56.0059 35.5ZM71.1466 47.6612C70.3063 50.8268 68.1795 53.6808 65.0981 55.7775C64.294 56.3324 63.4225 56.8215 62.4966 57.2375L62.231 57.3562C62.1278 57.4025 62.0247 57.4525 61.8497 57.5225L52.8809 61.5525L49.145 59.9712C49.07 59.9362 48.9888 59.9012 48.945 59.8825C46.9294 59.03 44.8106 58.0375 42.6591 56.9375C41.9699 56.582 41.3088 56.1929 40.6794 55.7725C37.6226 53.6756 35.5086 50.8354 34.6606 47.6862L40.8184 51.625C42.2028 52.5105 43.921 52.9951 45.6934 53H60.0684C61.8425 52.9959 63.5625 52.5113 64.9481 51.625L71.1466 47.6612ZM85.4966 53H81.0059C79.6206 52.9986 78.275 52.6297 77.1797 51.9511C76.0844 51.2726 75.3012 50.3226 74.9528 49.25H79.4434C80.8288 49.2514 82.1744 49.6203 83.2697 50.2988C84.365 50.9774 85.1482 51.9274 85.4966 53ZM85.4966 43C85.1482 44.0726 84.365 45.0226 83.2697 45.7011C82.1744 46.3797 80.8288 46.7486 79.4434 46.75H74.9528C75.3012 45.6774 76.0844 44.7274 77.1797 44.0489C78.275 43.3703 79.6206 43.0014 81.0059 43H85.4966ZM79.4434 15.5312V16.7912C79.4434 19.1355 79.0353 21.4683 78.2309 23.7225L77.4497 25.93C77.3497 25.84 77.2716 25.7375 77.1638 25.6512L68.3153 18.5812C68.0332 18.3652 67.7313 18.1663 67.4122 17.9862C71.1813 16.5418 75.27 15.7075 79.4434 15.5312V15.5312ZM62.7919 19.25C64.0344 19.2525 65.2254 19.6474 66.1059 20.3487L74.9466 27.4187C75.383 27.7664 75.7289 28.1799 75.9644 28.6352C76.1998 29.0904 76.3202 29.5785 76.3184 30.0712V34.5C75.1456 33.3018 73.6575 32.3247 71.9599 31.6379C70.2622 30.9512 68.3965 30.5717 66.495 30.5262C66.7868 30.1414 66.9418 29.7001 66.9434 29.25C66.9471 28.8299 66.8183 28.4159 66.5691 28.0461C66.3199 27.6764 65.9582 27.3628 65.5174 27.1344C65.0767 26.9061 64.5712 26.7702 64.0475 26.7394C63.5238 26.7087 62.9988 26.7839 62.5211 26.9584C62.0434 27.1328 61.6283 27.4007 61.3142 27.7373C61.0001 28.074 60.7971 28.4685 60.724 28.8845C60.6508 29.3005 60.7099 29.7245 60.8957 30.1174C61.0816 30.5103 61.3882 30.8594 61.7872 31.1325C60.3604 31.5569 59.0381 32.1788 57.8809 32.97C57.4453 32.5868 56.9147 32.2804 56.3228 32.0703C55.731 31.8603 55.0909 31.7512 54.4434 31.75H51.3184C50.671 31.7512 50.0309 31.8603 49.4391 32.0703C48.8472 32.2804 48.3166 32.5868 47.8809 32.97C46.7238 32.1788 45.4015 31.5569 43.9747 31.1325C44.4273 30.8225 44.7597 30.4154 44.9327 29.9592C45.1057 29.503 45.112 29.0168 44.951 28.5579C44.79 28.0989 44.4683 27.6863 44.0238 27.3688C43.5794 27.0513 43.0308 26.842 42.4426 26.7657C41.8544 26.6894 41.2512 26.7492 40.7041 26.9381C40.157 27.127 39.6888 27.437 39.3547 27.8317C39.0206 28.2264 38.8345 28.6894 38.8184 29.1659C38.8023 29.6424 38.9568 30.1127 39.2638 30.5212C37.3623 30.5676 35.4969 30.9481 33.7997 31.6357C32.1026 32.3233 30.6154 33.3012 29.4435 34.5V30.0712C29.4417 29.5785 29.5621 29.0904 29.7975 28.6352C30.033 28.1799 30.3789 27.7664 30.8153 27.4187L39.6559 20.3487C40.5365 19.6474 41.7275 19.2525 42.97 19.25H62.7919ZM27.531 23.7225C26.7266 21.4683 26.3185 19.1355 26.3185 16.7912V15.5312C30.4919 15.7075 34.5806 16.5418 38.3497 17.9862C38.0306 18.1663 37.7287 18.3652 37.4466 18.5812L28.606 25.6512C28.4981 25.7375 28.42 25.84 28.32 25.93L27.531 23.7225ZM9.15907 62.4075C8.97002 60.0127 9.86125 57.6431 11.6708 55.7294C13.4803 53.8157 16.088 52.4848 19.02 51.9787C19.4041 52.6508 19.6146 53.3779 19.6387 54.1166C19.6629 54.8553 19.5003 55.5903 19.1606 56.2775C18.5534 57.6249 18.3657 59.0703 18.6138 60.4887C18.7842 61.4709 19.1698 62.4213 19.7528 63.2962C19.0134 64.7508 18.6273 66.3048 18.6153 67.875C18.6209 68.7426 18.7371 69.6075 18.9622 70.4562L19.2544 71.5737C16.55 71.1397 14.0982 70.0081 12.2747 68.3524C10.4512 66.6968 9.35677 64.6084 9.15907 62.4075V62.4075ZM21.631 81.75H23.1935C23.425 81.7498 23.6537 81.7085 23.8629 81.629C24.072 81.5495 24.2565 81.4337 24.4029 81.2902C24.5493 81.1466 24.654 80.9788 24.7094 80.7989C24.7648 80.619 24.7695 80.4315 24.7231 80.25L22.0216 69.9475C21.8401 69.2661 21.7459 68.5717 21.7403 67.875C21.7504 65.5505 22.7824 63.3029 24.6555 61.5258C26.5286 59.7488 29.1234 58.5555 31.9856 58.155L34.0513 85.5H15.5778C15.9262 84.4274 16.7094 83.4774 17.8047 82.7988C18.9 82.1203 20.2456 81.7514 21.631 81.75V81.75ZM71.7419 85.5L73.8059 58.1587C75.4377 58.3911 76.9945 58.8835 78.3838 59.6066C79.7731 60.3297 80.9666 61.2688 81.8934 62.368C82.8202 63.4673 83.4614 64.7044 83.7789 66.0058C84.0965 67.3072 84.0839 68.6463 83.7419 69.9437L81.0388 80.2437C80.9911 80.4257 80.9948 80.6139 81.0496 80.7946C81.1044 80.9753 81.2088 81.1439 81.3554 81.2882C81.5019 81.4325 81.6868 81.5488 81.8967 81.6287C82.1066 81.7086 82.336 81.75 82.5684 81.75H84.1309C85.5185 81.7451 86.8681 82.1116 87.9653 82.7911C89.0624 83.4706 89.844 84.4242 90.1856 85.5H71.7419Z" fill="black"/>
<path d="M43.506 21.75H40.381V24.25H43.506V21.75Z" fill="black"/>
<path d="M65.381 21.75H62.256V24.25H65.381V21.75Z" fill="black"/>
</svg>
