<svg width="100" height="100" viewBox="0 0 100 100" fill="none" xmlns="http://www.w3.org/2000/svg">
<path d="M45.5833 64.3604L23.7769 81.8055C20.6675 84.2931 15.6317 84.2931 12.5223 81.8055L12.4973 81.7855C9.38785 79.298 9.38785 75.2694 12.4973 72.7818L32.2204 57.0033H28.2C25.4392 57.0033 22.7884 56.1244 20.8352 54.5619L16.3727 50.9919C9.73201 45.6793 6 38.4721 6 30.96V18.67C6 17.1852 8.24405 16.4416 9.55647 17.4915L42.6354 43.9547C41.9027 39.231 43.858 34.3599 48.2764 30.8252L64.9431 17.4918C65.3338 17.1793 65.8637 17.0037 66.4162 17.0037H74.7496C75.9002 17.0037 76.8329 17.7499 76.8329 18.6703V23.6703H83.0829C84.2335 23.6703 85.1663 24.4165 85.1663 25.337V30.337H91.4163C92.5668 30.337 93.4996 31.0832 93.4996 32.0037V38.6703C93.4996 39.1124 93.2801 39.5363 92.8894 39.8489L76.2227 53.1822C71.8043 56.7169 65.7154 58.2812 59.8108 57.695L78.669 72.7815C81.7784 75.269 81.7784 79.2976 78.669 81.7852L78.644 81.8052C75.5345 84.2927 70.4988 84.2927 67.3894 81.8052L45.5833 64.3604ZM48.5296 62.0033L70.3356 79.4482C71.8179 80.634 74.2155 80.634 75.6977 79.4482C77.2049 78.2424 77.2049 76.3243 75.7227 75.1385L53.9167 57.6937L48.5296 62.0033ZM36.3871 53.67L42.6371 48.67L10.1667 22.6937V30.96C10.1667 37.588 13.4597 43.9474 19.319 48.6348L23.7815 52.2048C24.9535 53.1425 26.5446 53.67 28.2 53.67H36.3871ZM83.9459 33.6703L67.8898 46.5152C67.0762 47.1661 65.7571 47.1661 64.9435 46.5152C64.1299 45.8643 64.1299 44.809 64.9435 44.1582L80.9996 31.3133V27.0037H75.6125L59.5565 39.8485C58.7429 40.4994 57.4238 40.4994 56.6102 39.8485C55.7966 39.1976 55.7966 38.1424 56.6102 37.4915L72.6663 24.6467V20.337H67.2792L51.2227 33.1822C46.5089 36.9532 45.3473 42.6502 48.175 47.3814C48.5559 48.0189 48.3931 48.7792 47.7686 49.2789L15.4436 75.1389C13.9613 76.3246 13.9613 78.2427 15.4436 79.4285C16.9508 80.6343 19.3484 80.6343 20.8306 79.4485L53.1556 53.5885C53.7801 53.0889 54.7306 52.9586 55.5274 53.2634C61.4415 55.5255 68.5627 54.5962 73.2764 50.8252L89.3329 37.98V33.6703H83.9459Z" fill="black"/>
</svg>
