<svg width="100" height="100" viewBox="0 0 100 100" fill="none" xmlns="http://www.w3.org/2000/svg">
<path d="M62.2386 34.4765C62.2386 38.9572 66.7934 42.6026 72.391 42.6026C77.9887 42.6026 82.542 38.9572 82.542 34.4765C82.542 29.9958 77.9887 26.3505 72.391 26.3505C66.7934 26.3505 62.2386 29.9958 62.2386 34.4765ZM80.3162 34.4765C80.3162 37.9752 76.7612 40.8215 72.3903 40.8215C68.0194 40.8215 64.4629 37.9752 64.4629 34.4765C64.4629 30.9778 68.0194 28.1316 72.3903 28.1316C76.7612 28.1316 80.3162 30.9784 80.3162 34.4765Z" fill="black"/>
<path d="M78.8468 46.9277C80.8939 46.2473 82.7289 45.2624 84.3021 44.0019L82.7274 42.7433C81.3612 43.8381 79.7695 44.6918 77.9931 45.2826L78.8468 46.9277Z" fill="black"/>
<path d="M66.8149 45.2921L65.9649 46.9379C68.0046 47.6123 70.1659 47.9543 72.391 47.9543H72.4066L72.391 46.1732C70.4581 46.1732 68.5831 45.8763 66.8149 45.2921Z" fill="black"/>
<path d="M85.8945 38.9501L87.9498 39.6317C88.7976 37.996 89.2263 36.2612 89.2263 34.4759V34.4237L87.0012 34.4759C87.0012 36.0267 86.6296 37.5317 85.8945 38.9501Z" fill="black"/>
<path d="M87.9246 29.2703C87.0687 27.6341 85.833 26.1676 84.2539 24.9125L82.6867 26.1765C84.0573 27.2666 85.1306 28.5389 85.8723 29.9584L87.9246 29.2703Z" fill="black"/>
<path d="M57.7779 34.4765C57.7779 32.9353 58.1473 31.438 58.8734 30.0249L56.8167 29.3463C55.9793 30.9755 55.5536 32.7008 55.555 34.4997L55.7538 34.5003L57.7779 34.4765Z" fill="black"/>
<path d="M77.9375 23.6527L78.7838 22.0051C76.7545 21.3384 74.6043 21 72.368 21C72.368 21 72.3666 21 72.3651 21L72.3532 21.4411L72.391 22.7811C74.3113 22.7805 76.1774 23.0738 77.9375 23.6527Z" fill="black"/>
<path d="M60.503 44.021L62.0746 42.7599C60.7055 41.6675 59.6367 40.3934 58.8979 38.9727L56.8434 39.6578C57.6956 41.2959 58.9268 42.7635 60.503 44.021Z" fill="black"/>
<path d="M66.7593 23.68L65.9004 22.0366C63.8547 22.7211 62.022 23.7085 60.4533 24.9707L62.0309 26.227C63.3941 25.131 64.9851 24.2743 66.7593 23.68Z" fill="black"/>
<path d="M87.9187 76.2189L78.5413 67.1548L68.8138 57.3159C68.3925 56.889 67.4913 56.889 67.0693 57.3159L57.3559 67.1393L47.9622 76.2189H41.6154V78H93.7566V76.2189H87.9187V76.2189ZM50.8519 76.2189L59.0863 68.2602L67.9415 59.3036L76.8116 68.2757L85.0297 76.2189H50.8519Z" fill="black"/>
<path d="M30.0901 65.2021C41.694 64.7366 50.955 57.0338 50.955 47.6319C50.955 37.9313 41.0955 30.0398 28.9775 30.0398C16.8595 30.0398 7 37.9319 7 47.6319C7 57.0338 16.2609 64.7366 27.8649 65.2021V75.9078H22.317V77.6889H35.6388V75.9078H30.0908V65.2021H30.0901ZM27.8649 56.775L20.8736 51.035L19.2804 52.2783L27.8649 59.3267V63.4174C17.4892 62.9531 9.22512 56.0513 9.22512 47.6319C9.22512 38.9133 18.0863 31.8209 28.9775 31.8209C39.8687 31.8209 48.7291 38.9139 48.7291 47.6319C48.7291 56.0513 40.4643 62.9531 30.0893 63.4168V54.2838L38.6738 47.2371L37.0806 45.9933L30.0893 51.7326V44.9519H27.8642V56.775H27.8649Z" fill="black"/>
</svg>
