<svg width="100" height="99" viewBox="0 0 100 99" fill="none" xmlns="http://www.w3.org/2000/svg">
<path d="M41.1426 56.8434C47.9492 56.8434 53.4873 52.4129 53.4873 46.9676C53.4873 41.5223 47.9492 37.0926 41.1426 37.0926C34.3359 37.0926 28.7988 41.5223 28.7988 46.9676C28.7988 52.4129 34.3359 56.8434 41.1426 56.8434ZM40.3926 42.2457C39.0546 42.1858 37.7604 42.0479 36.5851 41.7888C37.5013 40.0107 38.8611 38.7605 40.3926 38.447V42.2457ZM40.3926 43.4444V46.3676H35.402C35.4622 45.1355 35.6992 43.9637 36.0839 42.9175C37.418 43.2193 38.881 43.3808 40.3926 43.4444ZM40.3926 47.5676V50.4713C38.8829 50.514 37.4103 50.6589 36.0583 50.9405C35.6898 49.9137 35.4607 48.7703 35.402 47.5676H40.3926ZM40.3926 51.6705V55.489C38.8417 55.1715 37.4672 53.8932 36.5508 52.0791C37.7469 51.8374 39.0508 51.7109 40.3926 51.6705ZM41.8926 55.4891V51.6705C43.2344 51.7109 44.5385 51.8376 45.7352 52.0793C44.8187 53.8934 43.4438 55.1718 41.8926 55.4891ZM41.8926 50.4713V47.5676H46.8842C46.8254 48.7704 46.5964 49.9137 46.2278 50.9406C44.8754 50.6589 43.4023 50.514 41.8926 50.4713ZM48.3835 47.5676H51.9492C51.8026 49.2695 51.042 50.8344 49.8405 52.1273C49.1771 51.82 48.4509 51.5548 47.6645 51.3276C48.0748 50.1876 48.3254 48.9196 48.3835 47.5676ZM48.3835 46.3676C48.327 45.053 48.0884 43.8177 47.6979 42.7024C48.5098 42.4847 49.2634 42.2284 49.9525 41.9282C51.0903 43.1972 51.8071 44.7186 51.9492 46.3676H48.3835ZM46.8842 46.3676H41.8926V43.4838C43.4016 43.4623 44.8757 43.3188 46.2477 43.0558C46.604 44.067 46.8265 45.1884 46.8842 46.3676ZM41.8926 42.2842V38.4469C43.4601 38.7676 44.8478 40.0694 45.7639 41.9135C44.5454 42.1384 43.2378 42.2637 41.8926 42.2842ZM35.1418 41.3807C34.575 41.2017 34.0599 40.9949 33.5728 40.7677C34.5222 40.0255 35.6384 39.4203 36.8751 38.995C36.1993 39.6491 35.6112 40.4524 35.1418 41.3807ZM34.6564 42.5082C34.225 43.6733 33.9624 44.9765 33.9026 46.3676H30.3368C30.4882 44.6106 31.2932 42.999 32.5626 41.683C33.1997 41.9972 33.8966 42.2718 34.6564 42.5082ZM33.9026 47.5676C33.9607 48.9195 34.2111 50.1874 34.6212 51.3274C33.8348 51.5546 33.1088 51.8198 32.4454 52.1273C31.2439 50.8344 30.4834 49.2695 30.3368 47.5676H33.9026ZM33.4343 53.0605C33.949 52.8353 34.4967 52.6344 35.0928 52.4604C35.5701 53.4291 36.1763 54.2645 36.8755 54.9412C35.5787 54.4952 34.4126 53.8526 33.4343 53.0605ZM45.41 54.9411C46.1093 54.2644 46.7156 53.4291 47.193 52.4605C47.7891 52.6345 48.3369 52.8354 48.8514 53.0605C47.873 53.8527 46.7068 54.4952 45.41 54.9411ZM48.9745 40.9834C48.434 41.2047 47.8569 41.3992 47.2339 41.5668C46.7499 40.5608 46.1309 39.6924 45.4104 38.9951C46.7638 39.4604 47.9707 40.1432 48.9745 40.9834ZM53.0713 63.5332H28.9463C27.7402 63.5332 26.7588 64.3184 26.7588 65.2832V67.5832C26.7588 68.5481 27.7402 69.3332 28.9463 69.3332H53.0713C54.2773 69.3332 55.2588 68.5481 55.2588 67.5832V65.2832C55.2588 64.3184 54.2773 63.5332 53.0713 63.5332ZM53.7588 67.5832C53.7588 67.8864 53.4502 68.1332 53.0713 68.1332H28.9463C28.5674 68.1332 28.2588 67.8864 28.2588 67.5832V65.2832C28.2588 64.9801 28.5674 64.7332 28.9463 64.7332H53.0713C53.4502 64.7332 53.7588 64.9801 53.7588 65.2832V67.5832ZM81.0469 73.559L70.9883 37.5606C70.6095 36.2049 69.3746 35.1856 67.8475 34.7536C69.0022 33.8421 69.5736 32.4968 69.1943 31.1395L65.5352 18.0426C65.2519 17.0286 64.4922 16.1629 63.3955 15.6067C62.2998 15.0504 61.0029 14.8684 59.7295 15.095L35.7646 19.3793C34.4971 19.6059 33.416 20.2145 32.7197 21.0911C32.0244 21.9684 31.7969 23.0106 32.0801 24.0247L33.6766 29.7395H21.792C20.2529 29.7395 19 30.7418 19 31.9731V72.8934C19 74.1246 20.2529 75.127 21.792 75.127H46.3578L47.5908 79.5411C47.874 80.5551 48.6338 81.4207 49.7305 81.977C50.5195 82.3778 51.415 82.584 52.3271 82.584C52.6826 82.584 53.041 82.5528 53.3975 82.4887L77.3613 78.2043C78.6289 77.9778 79.7109 77.37 80.4062 76.4926C81.1025 75.6153 81.3291 74.5739 81.0469 73.559ZM33.5439 23.7622C33.3486 23.0614 33.5049 22.3411 33.9863 21.734C34.4678 21.1278 35.2148 20.7075 36.0918 20.5512L60.0566 16.2661C60.9346 16.1075 61.833 16.2348 62.5918 16.62C63.3496 17.0043 63.875 17.6028 64.0703 18.3043L67.7305 31.4012C68.1348 32.8489 66.9922 34.2903 65.1836 34.6129L63.0752 34.9898C62.9333 34.0685 62.5547 33.2078 61.9488 32.4646C62.8824 32.02 63.4193 31.153 63.1699 30.259L60.5518 20.8911C60.2393 19.7778 58.8496 19.0739 57.4678 19.3247L54.458 19.8629C53.0684 20.1122 52.1904 21.2192 52.5 22.3309L54.5701 29.7395H47.3134L45.3975 22.8832C45.3066 22.5598 44.9062 22.3629 44.501 22.4286C44.0977 22.5012 43.8428 22.8223 43.9326 23.1457L45.7751 29.7395H42.446L40.7607 23.7122C40.6709 23.3895 40.2715 23.1864 39.8652 23.2582C39.4609 23.3301 39.207 23.6512 39.2978 23.9747L40.9089 29.7395H35.2147L33.5439 23.7622ZM56.1178 29.7736L53.9648 22.0692C53.834 21.6028 54.2031 21.1379 54.7852 21.034L57.7939 20.4965C58.3877 20.3825 58.957 20.6864 59.0869 21.1528L61.7051 30.5207C61.7686 30.7473 61.7178 30.9793 61.5625 31.1747C61.4304 31.3408 61.2288 31.4512 61.0002 31.5152C59.7397 30.4967 58.0199 29.8603 56.1178 29.7736ZM63.167 69.1504V68.7198L70.0791 67.484C71.1191 67.2918 72.1494 67.8223 72.3799 68.6512L73.2432 71.7418C73.4756 72.5715 72.8203 73.3973 71.7832 73.5825L55.9863 76.4075C54.9434 76.6004 53.916 76.0692 53.6846 75.2403L53.653 75.127H55.6963C59.8154 75.127 63.167 72.4457 63.167 69.1504ZM20.5 72.8934V31.9731C20.5 31.4028 21.0791 30.9395 21.792 30.9395H55.6963C58.9883 30.9395 61.667 33.0825 61.667 35.7161V69.1504C61.667 71.784 58.9883 73.927 55.6963 73.927H21.792C21.0791 73.927 20.5 73.4637 20.5 72.8934ZM79.1396 75.8496C78.6592 76.4559 77.9111 76.8762 77.0342 77.0325L53.0703 81.3176C51.2617 81.6457 49.459 80.727 49.0557 79.2793L47.8956 75.127H52.1157L52.2207 75.502C52.5771 76.7762 53.9971 77.645 55.5654 77.645C55.8125 77.645 56.0625 77.6239 56.3135 77.5786L72.1103 74.7543C73.9551 74.4246 75.1191 72.9559 74.708 71.4809L73.8447 68.3903C73.4326 66.9153 71.5947 65.9856 69.7529 66.3121L63.167 67.4895V61.5396C63.292 61.611 63.439 61.6598 63.5977 61.6598C63.6523 61.6598 63.707 61.6551 63.7627 61.6457C64.166 61.5731 64.4209 61.252 64.3311 60.9286L63.167 56.7625V36.2039L65.5098 35.7848C67.3271 35.459 69.1201 36.3762 69.5244 37.8231L79.582 73.8207C79.7783 74.5223 79.6211 75.2426 79.1396 75.8496ZM71.9668 62.4325C72.0566 62.7559 71.8018 63.077 71.3984 63.1497C71.3428 63.159 71.2881 63.1637 71.2334 63.1637C70.8906 63.1637 70.5801 62.9739 70.5019 62.695L64.2764 40.4122C64.1865 40.0887 64.4414 39.7676 64.8447 39.695C65.248 39.6239 65.6504 39.8262 65.7412 40.1497L71.9668 62.4325Z" fill="black"/>
</svg>
