<svg width="71" height="71" viewBox="0 0 71 71" fill="none" xmlns="http://www.w3.org/2000/svg">
<path d="M10.8044 0C7.8863 0 5.40219 3.12371 5.40219 6.71622V45.3944L0.217073 59.2166C0.0726749 59.6015 -0.00144695 60.0213 2.1397e-05 60.4459V64.2838C2.1397e-05 66.1921 0.668914 68.1799 1.88113 69.3809C3.09336 70.582 4.59736 71 6.17393 71H64.8261C66.4027 71 67.9067 70.582 69.1189 69.3809C70.3311 68.1799 71 66.192 71 64.2838V60.4459C70.9939 60.019 70.9116 59.5991 70.7588 59.2166H70.7829L65.5978 45.3944V6.71622C65.5978 3.12371 63.1137 0 60.1957 0H10.8044ZM10.8044 5.75676H60.1957C60.8991 5.75676 60.9674 5.86312 60.9674 6.71622V44.1351H10.0326V6.71622C10.0326 5.86312 10.1009 5.75676 10.8044 5.75676ZM39.4311 8.57517C38.9392 8.56161 38.4566 8.74321 38.0533 9.09364C37.65 9.44407 37.347 9.9451 37.1882 10.5241L29.4708 37.3889C29.3379 37.7509 29.2667 38.1431 29.2618 38.5409C29.257 38.9387 29.3185 39.3335 29.4425 39.7003C29.5665 40.067 29.7503 40.3979 29.9824 40.6719C30.2144 40.9459 30.4896 41.1571 30.7906 41.2923C31.0916 41.4274 31.4119 41.4835 31.7312 41.457C32.0505 41.4305 32.3619 41.322 32.6458 41.1384C32.9297 40.9547 33.1799 40.6999 33.3806 40.39C33.5813 40.0801 33.7281 39.7218 33.8118 39.3378L41.5292 12.473C41.6601 12.0438 41.7065 11.582 41.6646 11.126C41.6227 10.67 41.4937 10.233 41.2884 9.85159C41.0831 9.47016 40.8074 9.15529 40.4843 8.93326C40.1612 8.71122 39.8001 8.58844 39.4311 8.57517V8.57517ZM26.1427 13.4024C25.7771 13.4286 25.4217 13.5622 25.1057 13.7922L12.7578 22.4274C12.4018 22.6786 12.1057 23.0426 11.8997 23.4824C11.6937 23.9222 11.5852 24.422 11.5852 24.931C11.5852 25.4399 11.6937 25.9397 11.8997 26.3795C12.1057 26.8193 12.4018 27.1834 12.7578 27.4345L25.1057 36.0697C25.371 36.2838 25.6689 36.4281 25.9808 36.4936C26.2927 36.559 26.6122 36.5443 26.9194 36.4504C27.2266 36.3564 27.515 36.1852 27.7669 35.9473C28.0188 35.7094 28.2289 35.4098 28.384 35.0671C28.5392 34.7243 28.6363 34.3457 28.6692 33.9545C28.7021 33.5633 28.6702 33.1679 28.5754 32.7927C28.4806 32.4174 28.325 32.0703 28.1181 31.7727C27.9113 31.4752 27.6575 31.2334 27.3726 31.0625L18.5941 24.9459L27.3726 18.7994C27.8312 18.4855 28.1906 17.9878 28.3924 17.3873C28.5942 16.7868 28.6264 16.1191 28.4837 15.4929C28.341 14.8668 28.0318 14.3193 27.6067 13.9396C27.1816 13.56 26.6655 13.3706 26.1427 13.4024V13.4024ZM44.5679 13.4024C44.0695 13.448 43.5963 13.6929 43.219 14.1005C42.8417 14.5081 42.5807 15.0565 42.4749 15.6638C42.369 16.2711 42.4241 16.9046 42.6318 17.4698C42.8395 18.035 43.1888 18.5014 43.6274 18.7994L52.4059 24.9459L43.6274 31.0625C43.3425 31.2334 43.0888 31.4752 42.8819 31.7727C42.675 32.0703 42.5194 32.4174 42.4246 32.7927C42.3299 33.1679 42.2979 33.5633 42.3309 33.9545C42.3638 34.3457 42.4608 34.7243 42.616 35.0671C42.7712 35.4098 42.9812 35.7094 43.2331 35.9473C43.485 36.1852 43.7735 36.3564 44.0807 36.4504C44.3879 36.5443 44.7073 36.559 45.0192 36.4936C45.3312 36.4281 45.629 36.2838 45.8944 36.0697L58.2422 27.4345C58.5982 27.1834 58.8943 26.8193 59.1003 26.3795C59.3063 25.9397 59.4148 25.4399 59.4148 24.931C59.4148 24.422 59.3063 23.9222 59.1003 23.4824C58.8943 23.0426 58.5982 22.6786 58.2422 22.4274L45.8944 13.7922C45.4937 13.4998 45.0315 13.364 44.5679 13.4024V13.4024ZM8.82678 49.8919H62.1732L65.0673 57.5676H5.93276L8.82678 49.8919ZM4.63045 63.3243H66.3696V64.2838C66.3696 64.848 66.3496 64.7537 66.249 64.8535C66.1483 64.9532 65.7153 65.2432 64.8261 65.2432H6.17393C5.28487 65.2432 4.85176 64.9532 4.75104 64.8535C4.65032 64.7536 4.63045 64.8479 4.63045 64.2838V63.3243Z" fill="black"/>
</svg>
