<svg width="100" height="100" viewBox="0 0 100 100" fill="none" xmlns="http://www.w3.org/2000/svg">
<path d="M85.2662 13.0592C77.4768 12.0063 62.7374 25.3395 60.9816 26.4987C58.1521 25.2093 55.1704 24.419 52.0608 24.4579H48.6771C45.5675 24.4183 42.5866 25.2085 39.7563 26.4987C37.8808 25.2602 22.3574 12.8489 14.5687 13.9018C10.2288 14.487 16.009 39.0686 18.4874 44.2419C13.7632 51.2007 13.6221 63.3464 22.9331 72.6445C33.4907 83.1917 49.8329 87 49.8329 87H50.9029C50.9029 87 67.2466 83.1917 77.8034 72.6445C87.1166 63.3464 86.974 51.2022 82.2498 44.2419C84.7297 39.0686 89.6061 13.6451 85.2662 13.0592ZM27.1703 51.1094C38.3057 46.7152 39.7519 57.4075 39.7519 57.4075C28.6157 63.9974 27.1703 51.1094 27.1703 51.1094ZM50.0464 70.7812C55.1785 70.0949 54.6546 72.6071 54.6546 72.6071C52.1517 71.3619 51.4468 72.8144 51.4468 72.8144C51.5827 75.0482 50.9007 75.7404 50.059 75.7404C49.201 75.7404 48.3749 74.8185 48.6254 72.8144C48.6254 72.8144 48.0194 71.3342 45.4464 72.4402C45.4464 72.441 45.3037 69.8427 50.0464 70.7812ZM44.0364 82.1522C50.1188 81.2849 49.6511 76.8629 49.6511 76.8629C49.7634 81.9614 55.4069 82.7921 55.4069 82.7921C48.2626 81.6411 44.0364 82.1522 44.0364 82.1522ZM59.33 57.8692C59.33 57.8692 60.7762 47.1776 71.9116 51.5719C71.9124 51.5719 70.467 64.4606 59.33 57.8692Z" fill="black"/>
</svg>
