<svg width="100" height="99" viewBox="0 0 100 99" fill="none" xmlns="http://www.w3.org/2000/svg">
<g clip-path="url(#clip0)">
<path d="M76.5625 40.8755C75.7899 40.8755 75.0347 41.0587 74.3923 41.4021C73.7499 41.7455 73.2492 42.2336 72.9536 42.8046C72.6579 43.3756 72.5806 44.0039 72.7313 44.6101C72.882 45.2163 73.2541 45.7731 73.8004 46.2102C74.3467 46.6472 75.0427 46.9448 75.8004 47.0654C76.5582 47.186 77.3436 47.1241 78.0574 46.8876C78.7711 46.6511 79.3812 46.2505 79.8104 45.7366C80.2397 45.2227 80.4688 44.6185 80.4688 44.0005C80.4688 43.1717 80.0572 42.3768 79.3246 41.7907C78.5921 41.2047 77.5985 40.8755 76.5625 40.8755ZM76.5625 45.8755C76.099 45.8755 75.6458 45.7655 75.2604 45.5595C74.875 45.3534 74.5746 45.0606 74.3972 44.718C74.2198 44.3754 74.1734 43.9984 74.2638 43.6347C74.3542 43.2709 74.5774 42.9369 74.9052 42.6746C75.233 42.4124 75.6506 42.2338 76.1053 42.1615C76.5599 42.0891 77.0311 42.1263 77.4594 42.2682C77.8877 42.4101 78.2537 42.6504 78.5113 42.9588C78.7688 43.2671 78.9062 43.6296 78.9062 44.0005C78.9062 44.4977 78.6593 44.9747 78.2198 45.3263C77.7802 45.6779 77.1841 45.8755 76.5625 45.8755Z" fill="black"/>
<path d="M69.5312 40.8755C70.3038 40.8755 71.0591 40.6922 71.7014 40.3488C72.3438 40.0054 72.8445 39.5174 73.1402 38.9463C73.4358 38.3753 73.5132 37.747 73.3624 37.1408C73.2117 36.5346 72.8397 35.9778 72.2934 35.5408C71.7471 35.1037 71.0511 34.8061 70.2933 34.6855C69.5356 34.5649 68.7502 34.6268 68.0364 34.8633C67.3226 35.0999 66.7125 35.5004 66.2833 36.0143C65.8541 36.5282 65.625 37.1324 65.625 37.7505C65.625 38.5793 66.0365 39.3741 66.7691 39.9602C67.5017 40.5462 68.4952 40.8755 69.5312 40.8755ZM69.5312 35.8755C69.9948 35.8755 70.4479 35.9854 70.8334 36.1915C71.2188 36.3975 71.5192 36.6903 71.6966 37.0329C71.874 37.3755 71.9204 37.7525 71.83 38.1163C71.7395 38.48 71.5163 38.8141 71.1885 39.0763C70.8608 39.3385 70.4431 39.5171 69.9885 39.5894C69.5339 39.6618 69.0626 39.6246 68.6343 39.4827C68.2061 39.3408 67.84 39.1005 67.5825 38.7922C67.325 38.4838 67.1875 38.1213 67.1875 37.7505C67.1875 37.2532 67.4344 36.7763 67.874 36.4246C68.3135 36.073 68.9096 35.8755 69.5312 35.8755V35.8755Z" fill="black"/>
<path d="M83.5938 34.6255C82.8212 34.6255 82.0659 34.8087 81.4236 35.1521C80.7812 35.4955 80.2805 35.9836 79.9848 36.5546C79.6892 37.1256 79.6118 37.7539 79.7626 38.3601C79.9133 38.9663 80.2853 39.5231 80.8316 39.9602C81.3779 40.3972 82.0739 40.6948 82.8317 40.8154C83.5894 40.936 84.3748 40.8741 85.0886 40.6376C85.8024 40.4011 86.4125 40.0005 86.8417 39.4866C87.2709 38.9727 87.5 38.3685 87.5 37.7505C87.5 36.9217 87.0885 36.1268 86.3559 35.5407C85.6233 34.9547 84.6298 34.6255 83.5938 34.6255V34.6255ZM83.5938 39.6255C83.1302 39.6255 82.6771 39.5155 82.2916 39.3095C81.9062 39.1034 81.6058 38.8106 81.4284 38.468C81.251 38.1254 81.2046 37.7484 81.295 37.3847C81.3855 37.021 81.6087 36.6869 81.9365 36.4246C82.2642 36.1624 82.6819 35.9838 83.1365 35.9115C83.5911 35.8391 84.0624 35.8763 84.4907 36.0182C84.9189 36.1601 85.285 36.4004 85.5425 36.7088C85.8 37.0171 85.9375 37.3796 85.9375 37.7505C85.9375 38.2477 85.6906 38.7247 85.251 39.0763C84.8115 39.4279 84.2154 39.6255 83.5938 39.6255V39.6255Z" fill="black"/>
<path d="M76.5625 34.6255C77.3351 34.6255 78.0903 34.4422 78.7327 34.0988C79.3751 33.7554 79.8758 33.2674 80.1714 32.6963C80.4671 32.1253 80.5444 31.497 80.3937 30.8908C80.243 30.2846 79.8709 29.7278 79.3246 29.2908C78.7783 28.8537 78.0823 28.5561 77.3246 28.4355C76.5668 28.3149 75.7814 28.3768 75.0676 28.6133C74.3539 28.8499 73.7438 29.2504 73.3146 29.7643C72.8853 30.2782 72.6562 30.8824 72.6562 31.5005C72.6562 32.3293 73.0678 33.1241 73.8004 33.7102C74.5329 34.2962 75.5265 34.6255 76.5625 34.6255ZM76.5625 29.6255C77.026 29.6255 77.4792 29.7354 77.8646 29.9415C78.25 30.1475 78.5504 30.4403 78.7278 30.7829C78.9052 31.1255 78.9516 31.5025 78.8612 31.8663C78.7708 32.23 78.5476 32.5641 78.2198 32.8263C77.892 33.0885 77.4744 33.2671 77.0197 33.3394C76.5651 33.4118 76.0939 33.3746 75.6656 33.2327C75.2373 33.0908 74.8713 32.8505 74.6137 32.5422C74.3562 32.2338 74.2188 31.8713 74.2188 31.5005C74.2188 31.0032 74.4657 30.5263 74.9052 30.1746C75.3448 29.823 75.9409 29.6255 76.5625 29.6255V29.6255Z" fill="black"/>
<path d="M88.1953 29.0567C88.0156 28.9255 87.7813 28.7567 87.5 28.5692V26.9067C87.5005 26.1447 87.2832 25.3926 86.8648 24.708C86.4464 24.0234 85.838 23.4244 85.0859 22.9567C80.8467 20.363 75.6493 18.9711 70.3125 19.0005C68.9861 19.0308 67.6832 19.2887 66.4922 19.7567C65.3573 20.2009 64.3203 20.7898 63.4219 21.5005H36.5781C35.682 20.7904 34.6477 20.2015 33.5156 19.7567C32.3222 19.2878 31.0166 19.0299 29.6875 19.0005C24.3508 18.9716 19.1536 20.3634 14.9141 22.9567C14.162 23.4244 13.5536 24.0234 13.1352 24.708C12.7168 25.3926 12.4995 26.1447 12.5 26.9067V28.5692C12.2187 28.763 11.9766 28.9317 11.8047 29.0567C11.4764 29.2851 11.185 29.5455 10.9375 29.8317C6.60156 35.0755 0 51.3755 0 64.0005C0 73.0442 3.90625 76.4692 7.19531 77.7505C7.81586 77.9926 8.49709 78.1187 9.1875 78.1192C9.80396 78.1171 10.4139 78.0178 10.9823 77.8269C11.5507 77.636 12.0664 77.3573 12.5 77.0067L25.5703 66.563C26.5837 65.748 27.7891 65.1018 29.1167 64.662C30.4443 64.2221 31.8677 63.9973 33.3047 64.0005H66.6953C68.1323 63.9973 69.5557 64.2221 70.8833 64.662C72.2109 65.1018 73.4163 65.748 74.4297 66.563L87.5 77.0067C88.1835 77.5535 89.0617 77.9178 90.0141 78.0499C90.9665 78.1819 91.9467 78.0751 92.8203 77.7442C96.1016 76.4942 100.016 73.0442 100.016 63.9942C100.016 51.3692 93.4141 35.0692 89.0781 29.8192C88.8248 29.5365 88.5282 29.2804 88.1953 29.0567ZM67.8828 21.9942C68.6432 21.701 69.4694 21.5331 70.3125 21.5005C74.9529 21.469 79.4743 22.674 83.1641 24.9255C83.5074 25.1361 83.7924 25.4016 84.0008 25.705C84.2093 26.0084 84.3367 26.3431 84.375 26.688C81.3911 25.0743 78.0066 23.9955 74.4531 23.5255C73.5286 23.4191 72.586 23.4813 71.6958 23.7075C70.8056 23.9337 69.9908 24.318 69.3125 24.8317L68.3984 25.5192L66.1172 22.913C66.656 22.5495 67.2491 22.2409 67.8828 21.9942V21.9942ZM63.2812 24.0005L66.125 27.2505L59.6953 32.0755C59.1072 32.516 58.3291 32.7579 57.5234 32.7505H42.4766C41.6817 32.7514 40.9162 32.5101 40.3359 32.0755L33.9063 27.2505L36.7188 24.0005H63.2812ZM16.8359 24.9255C20.5256 22.674 25.0471 21.469 29.6875 21.5005C30.5333 21.5321 31.3623 21.7 32.125 21.9942C32.7619 22.2424 33.3576 22.5531 33.8984 22.9192L31.6172 25.5255L30.6953 24.838C30.0173 24.3239 29.2026 23.9394 28.3123 23.7131C27.422 23.4869 26.4792 23.4249 25.5547 23.5317C21.9992 23.999 18.6119 25.0757 15.625 26.688C15.6633 26.3431 15.7907 26.0084 15.9992 25.705C16.2076 25.4016 16.4925 25.1361 16.8359 24.9255ZM91.4062 75.4942C91.1168 75.5968 90.7952 75.6266 90.4841 75.5798C90.173 75.5329 89.887 75.4115 89.6641 75.2317L76.6406 64.7942C75.3376 63.7463 73.7876 62.9156 72.0805 62.3502C70.3733 61.7848 68.5429 61.496 66.6953 61.5005H33.3047C31.4571 61.496 29.6267 61.7848 27.9195 62.3502C26.2124 62.9156 24.6624 63.7463 23.3594 64.7942L10.3047 75.2505C10.0817 75.4303 9.79575 75.5516 9.48463 75.5985C9.17352 75.6454 8.85195 75.6155 8.5625 75.513C6.53125 74.7255 3.09375 72.1817 3.09375 64.0192C3.09375 50.8942 9.99219 35.488 13.5391 31.2317C13.6372 31.1167 13.7527 31.0117 13.8828 30.9192C15.2188 29.9442 20.0391 26.6942 25.9609 26.013C26.1014 26.0049 26.2424 26.0049 26.3828 26.013C27.1788 26.0137 27.9444 26.2573 28.5234 26.6942L38.2031 33.9005C39.3617 34.7682 40.8895 35.2508 42.4766 35.2505H57.5234C59.1105 35.2508 60.6383 34.7682 61.7969 33.9005L71.4531 26.6567C71.7913 26.4024 72.1961 26.2116 72.6379 26.0981C73.0798 25.9846 73.5478 25.9512 74.0078 26.0005C79.9297 26.6817 84.75 29.9255 86.0859 30.9067C86.2162 30.9991 86.3317 31.1041 86.4297 31.2192C89.9766 35.4692 96.875 50.8755 96.875 64.0005C96.875 72.163 93.4688 74.7067 91.4062 75.4942Z" fill="black"/>
<path d="M50 32.1255C50.9271 32.1255 51.8334 31.9055 52.6042 31.4935C53.3751 31.0814 53.9759 30.4957 54.3307 29.8105C54.6855 29.1253 54.7783 28.3713 54.5974 27.6439C54.4166 26.9164 53.9701 26.2483 53.3146 25.7238C52.659 25.1994 51.8238 24.8422 50.9145 24.6975C50.0052 24.5528 49.0627 24.6271 48.2062 24.9109C47.3496 25.1947 46.6176 25.6754 46.1025 26.2921C45.5874 26.9088 45.3125 27.6338 45.3125 28.3755C45.3125 29.37 45.8064 30.3238 46.6854 31.0271C47.5645 31.7304 48.7568 32.1255 50 32.1255ZM50 25.8755C50.6181 25.8755 51.2223 26.0221 51.7362 26.2968C52.2501 26.5715 52.6506 26.9619 52.8871 27.4188C53.1236 27.8756 53.1855 28.3782 53.065 28.8632C52.9444 29.3481 52.6467 29.7936 52.2097 30.1432C51.7727 30.4929 51.2158 30.731 50.6097 30.8274C50.0035 30.9239 49.3751 30.8744 48.8041 30.6852C48.2331 30.4959 47.745 30.1755 47.4017 29.7644C47.0583 29.3533 46.875 28.8699 46.875 28.3755C46.875 27.7124 47.2042 27.0765 47.7903 26.6077C48.3763 26.1389 49.1712 25.8755 50 25.8755V25.8755Z" fill="black"/>
<path d="M57.0312 40.8755C57.6493 40.8755 58.2535 40.7288 58.7674 40.4541C59.2813 40.1794 59.6818 39.789 59.9184 39.3322C60.1549 38.8754 60.2168 38.3727 60.0962 37.8877C59.9756 37.4028 59.678 36.9573 59.241 36.6077C58.8039 36.2581 58.2471 36.02 57.6409 35.9235C57.0347 35.827 56.4064 35.8765 55.8354 36.0658C55.2643 36.255 54.7763 36.5754 54.4329 36.9865C54.0895 37.3977 53.9062 37.881 53.9062 38.3755C53.9062 39.0385 54.2355 39.6744 54.8215 40.1432C55.4076 40.6121 56.2024 40.8755 57.0312 40.8755ZM57.0312 37.1255C57.3403 37.1255 57.6424 37.1988 57.8993 37.3361C58.1563 37.4735 58.3565 37.6687 58.4748 37.8971C58.5931 38.1255 58.624 38.3768 58.5637 38.6193C58.5034 38.8618 58.3546 39.0845 58.1361 39.2593C57.9176 39.4342 57.6392 39.5532 57.3361 39.6014C57.033 39.6497 56.7188 39.6249 56.4333 39.5303C56.1478 39.4357 55.9038 39.2755 55.7321 39.0699C55.5604 38.8644 55.4687 38.6227 55.4687 38.3755C55.4687 38.0439 55.6334 37.726 55.9264 37.4916C56.2194 37.2572 56.6168 37.1255 57.0312 37.1255Z" fill="black"/>
<path d="M42.9688 35.8755C42.3507 35.8755 41.7465 36.0221 41.2326 36.2968C40.7187 36.5715 40.3182 36.9619 40.0816 37.4187C39.8451 37.8756 39.7832 38.3782 39.9038 38.8632C40.0244 39.3481 40.322 39.7936 40.759 40.1432C41.1961 40.4929 41.7529 40.731 42.3591 40.8274C42.9653 40.9239 43.5936 40.8744 44.1646 40.6852C44.7357 40.4959 45.2237 40.1755 45.5671 39.7644C45.9105 39.3533 46.0938 38.8699 46.0938 38.3755C46.0938 37.7124 45.7645 37.0765 45.1785 36.6077C44.5924 36.1389 43.7976 35.8755 42.9688 35.8755ZM42.9688 39.6255C42.6597 39.6255 42.3576 39.5521 42.1007 39.4148C41.8437 39.2774 41.6435 39.0822 41.5252 38.8538C41.4069 38.6254 41.376 38.3741 41.4363 38.1316C41.4966 37.8891 41.6454 37.6664 41.8639 37.4916C42.0824 37.3168 42.3608 37.1977 42.6639 37.1495C42.967 37.1012 43.2812 37.126 43.5667 37.2206C43.8522 37.3152 44.0962 37.4754 44.2679 37.681C44.4396 37.8866 44.5313 38.1282 44.5313 38.3755C44.5313 38.707 44.3666 39.0249 44.0736 39.2593C43.7806 39.4938 43.3832 39.6255 42.9688 39.6255Z" fill="black"/>
<path d="M32.0313 37.7505C32.0313 36.2671 31.4814 34.8171 30.4513 33.5837C29.4211 32.3503 27.957 31.389 26.2439 30.8214C24.5309 30.2537 22.6459 30.1052 20.8273 30.3946C19.0087 30.684 17.3382 31.3983 16.0271 32.4472C14.716 33.4961 13.8231 34.8324 13.4614 36.2873C13.0997 37.7421 13.2853 39.2501 13.9949 40.6206C14.7045 41.991 15.9061 43.1624 17.4478 43.9865C18.9895 44.8106 20.8021 45.2505 22.6563 45.2505C25.1427 45.2505 27.5272 44.4603 29.2854 43.0538C31.0435 41.6472 32.0313 39.7396 32.0313 37.7505ZM22.6563 44.0005C21.1111 44.0005 19.6006 43.6339 18.3159 42.9471C17.0311 42.2604 16.0298 41.2843 15.4384 40.1422C14.8471 39.0002 14.6924 37.7435 14.9939 36.5311C15.2953 35.3188 16.0394 34.2051 17.132 33.331C18.2246 32.457 19.6166 31.8617 21.1321 31.6206C22.6476 31.3794 24.2184 31.5032 25.646 31.9762C27.0735 32.4493 28.2937 33.2503 29.1521 34.2781C30.0106 35.306 30.4688 36.5143 30.4688 37.7505C30.4688 39.4081 29.6457 40.9978 28.1805 42.1699C26.7154 43.342 24.7283 44.0005 22.6563 44.0005V44.0005Z" fill="black"/>
<path d="M22.6563 32.7505C21.4201 32.7505 20.2117 33.0437 19.1839 33.5931C18.1561 34.1425 17.3551 34.9234 16.882 35.837C16.409 36.7507 16.2852 37.756 16.5263 38.7259C16.7675 39.6958 17.3628 40.5867 18.2368 41.286C19.1109 41.9853 20.2246 42.4615 21.4369 42.6544C22.6493 42.8473 23.906 42.7483 25.048 42.3699C26.1901 41.9914 27.1662 41.3506 27.8529 40.5283C28.5397 39.7061 28.9063 38.7394 28.9063 37.7505C28.9063 36.4244 28.2478 35.1526 27.0757 34.2149C25.9036 33.2772 24.3139 32.7505 22.6563 32.7505ZM22.6563 41.5005C21.7292 41.5005 20.8229 41.2805 20.052 40.8685C19.2812 40.4564 18.6804 39.8707 18.3256 39.1855C17.9708 38.5003 17.878 37.7463 18.0588 37.0189C18.2397 36.2914 18.6861 35.6233 19.3417 35.0988C19.9972 34.5744 20.8325 34.2172 21.7418 34.0725C22.6511 33.9278 23.5936 34.0021 24.4501 34.2859C25.3066 34.5697 26.0387 35.0504 26.5538 35.6671C27.0688 36.2838 27.3438 37.0088 27.3438 37.7505C27.3438 38.745 26.8499 39.6988 25.9708 40.4021C25.0917 41.1054 23.8995 41.5005 22.6563 41.5005V41.5005Z" fill="black"/>
<path d="M63.2813 44.0005C61.4271 44.0005 59.6145 44.4403 58.0728 45.2644C56.5311 46.0885 55.3295 47.2599 54.6199 48.6303C53.9103 50.0008 53.7247 51.5088 54.0864 52.9636C54.4481 54.4185 55.341 55.7549 56.6521 56.8038C57.9632 57.8527 59.6337 58.567 61.4523 58.8564C63.2709 59.1457 65.1559 58.9972 66.8689 58.4296C68.582 57.8619 70.0461 56.9006 71.0763 55.6672C72.1064 54.4339 72.6563 52.9838 72.6563 51.5005C72.6563 49.5113 71.6685 47.6037 69.9104 46.1972C68.1522 44.7906 65.7677 44.0005 63.2813 44.0005ZM63.2813 57.7505C61.7361 57.7505 60.2256 57.3839 58.9409 56.6971C57.6561 56.0104 56.6548 55.0343 56.0634 53.8922C55.4721 52.7502 55.3174 51.4935 55.6189 50.2811C55.9203 49.0688 56.6644 47.9551 57.757 47.081C58.8496 46.207 60.2416 45.6117 61.7571 45.3705C63.2726 45.1294 64.8434 45.2532 66.271 45.7262C67.6985 46.1993 68.9187 47.0003 69.7771 48.0281C70.6356 49.056 71.0938 50.2643 71.0938 51.5005C71.0938 53.1581 70.2707 54.7478 68.8055 55.9199C67.3404 57.092 65.3533 57.7505 63.2813 57.7505Z" fill="black"/>
<path d="M63.2813 46.5005C62.0451 46.5005 60.8367 46.7937 59.8089 47.3431C58.7811 47.8925 57.9801 48.6734 57.507 49.587C57.034 50.5007 56.9102 51.506 57.1513 52.4759C57.3925 53.4458 57.9878 54.3367 58.8618 55.036C59.7359 55.7353 60.8496 56.2115 62.0619 56.4044C63.2743 56.5973 64.531 56.4983 65.673 56.1199C66.8151 55.7414 67.7912 55.1006 68.4779 54.2783C69.1647 53.4561 69.5313 52.4894 69.5313 51.5005C69.5313 50.1744 68.8728 48.9026 67.7007 47.9649C66.5286 47.0272 64.9389 46.5005 63.2813 46.5005ZM63.2813 55.2505C62.3542 55.2505 61.4479 55.0305 60.677 54.6185C59.9062 54.2064 59.3054 53.6207 58.9506 52.9355C58.5958 52.2503 58.503 51.4963 58.6838 50.7689C58.8647 50.0414 59.3111 49.3733 59.9667 48.8488C60.6223 48.3244 61.4575 47.9672 62.3668 47.8225C63.2761 47.6778 64.2186 47.7521 65.0751 48.0359C65.9316 48.3197 66.6637 48.8004 67.1788 49.4171C67.6938 50.0338 67.9688 50.7588 67.9688 51.5005C67.9688 52.495 67.4749 53.4488 66.5958 54.1521C65.7167 54.8554 64.5245 55.2505 63.2813 55.2505Z" fill="black"/>
<path d="M43.75 49.0005H39.8438V45.8755C39.8438 45.3782 39.5968 44.9013 39.1573 44.5496C38.7177 44.198 38.1216 44.0005 37.5 44.0005H35.9375C35.3159 44.0005 34.7198 44.198 34.2802 44.5496C33.8407 44.9013 33.5938 45.3782 33.5938 45.8755V49.0005H29.6875C29.0659 49.0005 28.4698 49.198 28.0302 49.5496C27.5907 49.9013 27.3438 50.3782 27.3438 50.8755V52.1255C27.3438 52.6227 27.5907 53.0997 28.0302 53.4513C28.4698 53.8029 29.0659 54.0005 29.6875 54.0005H33.5938V57.1255C33.5938 57.6227 33.8407 58.0997 34.2802 58.4513C34.7198 58.8029 35.3159 59.0005 35.9375 59.0005H37.5C38.1216 59.0005 38.7177 58.8029 39.1573 58.4513C39.5968 58.0997 39.8438 57.6227 39.8438 57.1255V54.0005H43.75C44.3716 54.0005 44.9677 53.8029 45.4073 53.4513C45.8468 53.0997 46.0938 52.6227 46.0938 52.1255V50.8755C46.0937 50.3782 45.8468 49.9013 45.4073 49.5496C44.9677 49.198 44.3716 49.0005 43.75 49.0005V49.0005ZM44.5312 52.1255C44.5312 52.2912 44.4489 52.4502 44.3024 52.5674C44.1559 52.6846 43.9572 52.7505 43.75 52.7505H39.0625C38.8553 52.7505 38.6566 52.8163 38.5101 52.9335C38.3636 53.0507 38.2812 53.2097 38.2812 53.3755V57.1255C38.2812 57.2912 38.1989 57.4502 38.0524 57.5674C37.9059 57.6846 37.7072 57.7505 37.5 57.7505H35.9375C35.7303 57.7505 35.5316 57.6846 35.3851 57.5674C35.2386 57.4502 35.1562 57.2912 35.1562 57.1255V53.3755C35.1562 53.2097 35.0739 53.0507 34.9274 52.9335C34.7809 52.8163 34.5822 52.7505 34.375 52.7505H29.6875C29.4803 52.7505 29.2816 52.6846 29.1351 52.5674C28.9886 52.4502 28.9062 52.2912 28.9062 52.1255V50.8755C28.9062 50.7097 28.9886 50.5507 29.1351 50.4335C29.2816 50.3163 29.4803 50.2505 29.6875 50.2505H34.375C34.5822 50.2505 34.7809 50.1846 34.9274 50.0674C35.0739 49.9502 35.1562 49.7912 35.1562 49.6255V45.8755C35.1562 45.7097 35.2386 45.5507 35.3851 45.4335C35.5316 45.3163 35.7303 45.2505 35.9375 45.2505H37.5C37.7072 45.2505 37.9059 45.3163 38.0524 45.4335C38.1989 45.5507 38.2812 45.7097 38.2812 45.8755V49.6255C38.2812 49.7912 38.3636 49.9502 38.5101 50.0674C38.6566 50.1846 38.8553 50.2505 39.0625 50.2505H43.75C43.9572 50.2505 44.1559 50.3163 44.3024 50.4335C44.4489 50.5507 44.5312 50.7097 44.5312 50.8755V52.1255Z" fill="black"/>
</g>
<defs>
<clipPath id="clip0">
<rect width="100" height="100" fill="white" transform="translate(0 -1)"/>
</clipPath>
</defs>
</svg>
