<svg width="100" height="99" viewBox="0 0 100 99" fill="none" xmlns="http://www.w3.org/2000/svg">
<path d="M16.6 61.2H8.5C6.6 61.2 5 62.48 5 64V70.56C5 72.08 6.6 73.36 8.5 73.36H16.7C18.6 73.36 20.2 72.08 20.2 70.56V64C20.1 62.48 18.6 61.2 16.6 61.2ZM17.1 70.56C17.1 70.8 16.9 70.96 16.6 70.96H8.5C8.2 70.96 8 70.8 8 70.56V64C8 63.76 8.2 63.6 8.5 63.6H16.7C17 63.6 17.2 63.76 17.2 64V70.56H17.1Z" fill="black"/>
<path d="M34.2 61.2H26C24.1 61.2 22.5 62.48 22.5 64V70.56C22.5 72.08 24.1 73.36 26 73.36H34.2C36.1 73.36 37.7 72.08 37.7 70.56V64C37.7 62.48 36.1 61.2 34.2 61.2ZM34.7 70.56C34.7 70.8 34.5 70.96 34.2 70.96H26C25.7 70.96 25.5 70.8 25.5 70.56V64C25.5 63.76 25.7 63.6 26 63.6H34.2C34.5 63.6 34.7 63.76 34.7 64V70.56Z" fill="black"/>
<path d="M34.2 47.2H26C24.1 47.2 22.5 48.48 22.5 50V56.56C22.5 58.08 24.1 59.36 26 59.36H34.2C36.1 59.36 37.7 58.08 37.7 56.56V50C37.7 48.48 36.1 47.2 34.2 47.2ZM34.7 56.48C34.7 56.72 34.5 56.88 34.2 56.88H26C25.7 56.88 25.5 56.72 25.5 56.48V49.92C25.5 49.68 25.7 49.52 26 49.52H34.2C34.5 49.52 34.7 49.68 34.7 49.92V56.48Z" fill="black"/>
<path d="M51.7 61.2H43.5C41.6 61.2 40 62.48 40 64V70.56C40 72.08 41.6 73.36 43.5 73.36H51.7C53.6 73.36 55.2 72.08 55.2 70.56V64C55.2 62.48 53.6 61.2 51.7 61.2ZM52.2 70.56C52.2 70.8 52 70.96 51.7 70.96H43.5C43.2 70.96 43 70.8 43 70.56V64C43 63.76 43.2 63.6 43.5 63.6H51.7C52 63.6 52.2 63.76 52.2 64V70.56Z" fill="black"/>
<path d="M79.5 42.64C78.8 35.84 71.7 30.56 63 30.56H45.1C37.6 30.56 31.5 25.68 31.5 19.68V17.2C31.5 16.56 30.8 16 30 16C29.2 16 28.5 16.56 28.5 17.2V19.68C28.5 26.96 35.9 32.96 45.1 32.96H63C70 32.96 75.8 37.2 76.5 42.64C68.1 43.28 61.5 48.96 61.5 55.84V68C61.5 75.28 68.9 81.2 78 81.2C87.1 81.2 94.5 75.28 94.5 68V55.84C94.6 48.96 88 43.28 79.5 42.64ZM91.6 55.84V56.08H79.6V45.12C86.4 45.68 91.6 50.24 91.6 55.84ZM76.6 45.12V56.08H64.6V55.84C64.6 50.24 69.8 45.68 76.6 45.12ZM78.1 78.8C70.6 78.8 64.6 73.92 64.6 68V58.48H91.7V68C91.6 73.92 85.6 78.8 78.1 78.8Z" fill="black"/>
</svg>
